<?xml version="1.0" encoding="UTF-8" standalone="no"?>
<!DOCTYPE svg PUBLIC "-//W3C//DTD SVG 1.1//EN"
 "http://www.w3.org/Graphics/SVG/1.1/DTD/svg11.dtd">
<!-- Generated by graphviz version 2.42.4 (0)
 -->
<!-- Title: G Pages: 1 -->
<svg width="526pt" height="935pt"
 viewBox="0.00 0.00 525.50 935.00" xmlns="http://www.w3.org/2000/svg" xmlns:xlink="http://www.w3.org/1999/xlink">
<g id="graph0" class="graph" transform="scale(1 1) rotate(0) translate(4 931)">
<title>G</title>
<polygon fill="white" stroke="transparent" points="-4,4 -4,-931 521.5,-931 521.5,4 -4,4"/>
<text text-anchor="middle" x="258.75" y="-907" font-family="Arial" font-size="20.00">OpenData Command&#45;Line Flow</text>
<!-- start -->
<g id="node1" class="node">
<title>start</title>
<ellipse fill="none" stroke="black" cx="80" cy="-879" rx="18" ry="18"/>
</g>
<!-- parse -->
<g id="node2" class="node">
<title>parse</title>
<path fill="none" stroke="black" d="M148,-824C148,-824 12,-824 12,-824 6,-824 0,-818 0,-812 0,-812 0,-800 0,-800 0,-794 6,-788 12,-788 12,-788 148,-788 148,-788 154,-788 160,-794 160,-800 160,-800 160,-812 160,-812 160,-818 154,-824 148,-824"/>
<text text-anchor="middle" x="80" y="-803.2" font-family="Arial" font-size="11.00">Parse and validate arguments</text>
</g>
<!-- start&#45;&gt;parse -->
<g id="edge1" class="edge">
<title>start&#45;&gt;parse</title>
<path fill="none" stroke="black" d="M80,-860.81C80,-852.79 80,-843.05 80,-834.07"/>
<polygon fill="black" stroke="black" points="83.5,-834.03 80,-824.03 76.5,-834.03 83.5,-834.03"/>
</g>
<!-- info -->
<g id="node3" class="node">
<title>info</title>
<path fill="none" stroke="black" d="M68.32,-748.23C68.32,-748.23 15.8,-735.77 15.8,-735.77 9.96,-734.38 9.96,-731.62 15.8,-730.23 15.8,-730.23 68.32,-717.77 68.32,-717.77 74.16,-716.38 85.84,-716.38 91.68,-717.77 91.68,-717.77 144.2,-730.23 144.2,-730.23 150.04,-731.62 150.04,-734.38 144.2,-735.77 144.2,-735.77 91.68,-748.23 91.68,-748.23 85.84,-749.62 74.16,-749.62 68.32,-748.23"/>
<text text-anchor="middle" x="80" y="-730.2" font-family="Arial" font-size="11.00">Help or About?</text>
</g>
<!-- parse&#45;&gt;info -->
<g id="edge2" class="edge">
<title>parse&#45;&gt;info</title>
<path fill="none" stroke="black" d="M80,-787.81C80,-779.79 80,-770.05 80,-761.07"/>
<polygon fill="black" stroke="black" points="83.5,-761.03 80,-751.03 76.5,-761.03 83.5,-761.03"/>
</g>
<!-- show -->
<g id="node4" class="node">
<title>show</title>
<path fill="none" stroke="black" d="M103,-615C103,-615 19,-615 19,-615 13,-615 7,-609 7,-603 7,-603 7,-591 7,-591 7,-585 13,-579 19,-579 19,-579 103,-579 103,-579 109,-579 115,-585 115,-591 115,-591 115,-603 115,-603 115,-609 109,-615 103,-615"/>
<text text-anchor="middle" x="61" y="-600.2" font-family="Arial" font-size="11.00">Display information</text>
<text text-anchor="middle" x="61" y="-588.2" font-family="Arial" font-size="11.00">(no SQL Server)</text>
</g>
<!-- info&#45;&gt;show -->
<g id="edge3" class="edge">
<title>info&#45;&gt;show</title>
<path fill="none" stroke="black" d="M77.63,-715.3C74.44,-692.75 68.7,-652.3 64.87,-625.3"/>
<polygon fill="black" stroke="black" points="68.33,-624.75 63.46,-615.34 61.4,-625.73 68.33,-624.75"/>
<text text-anchor="middle" x="82.5" y="-689.8" font-family="Arial" font-size="9.00">yes</text>
</g>
<!-- listq -->
<g id="node5" class="node">
<title>listq</title>
<path fill="none" stroke="black" d="M142.44,-665.79C142.44,-665.79 100.8,-654.21 100.8,-654.21 95.02,-652.61 95.02,-649.39 100.8,-647.79 100.8,-647.79 142.44,-636.21 142.44,-636.21 148.22,-634.61 159.78,-634.61 165.56,-636.21 165.56,-636.21 207.2,-647.79 207.2,-647.79 212.98,-649.39 212.98,-652.61 207.2,-654.21 207.2,-654.21 165.56,-665.79 165.56,-665.79 159.78,-667.39 148.22,-667.39 142.44,-665.79"/>
<text text-anchor="middle" x="154" y="-648.2" font-family="Arial" font-size="11.00">List plugins?</text>
</g>
<!-- info&#45;&gt;listq -->
<g id="edge4" class="edge">
<title>info&#45;&gt;listq</title>
<path fill="none" stroke="black" d="M93.23,-717.7C104.73,-705.26 121.56,-687.07 134.59,-672.99"/>
<polygon fill="black" stroke="black" points="137.16,-675.36 141.38,-665.64 132.02,-670.61 137.16,-675.36"/>
<text text-anchor="middle" x="127.5" y="-689.8" font-family="Arial" font-size="9.00">no</text>
</g>
<!-- done -->
<g id="node14" class="node">
<title>done</title>
<path fill="none" stroke="black" d="M214,-117C214,-117 86,-117 86,-117 80,-117 74,-111 74,-105 74,-105 74,-93 74,-93 74,-87 80,-81 86,-81 86,-81 214,-81 214,-81 220,-81 226,-87 226,-93 226,-93 226,-105 226,-105 226,-111 220,-117 214,-117"/>
<text text-anchor="middle" x="150" y="-96.2" font-family="Arial" font-size="11.00">Log final status and duration</text>
</g>
<!-- show&#45;&gt;done -->
<g id="edge14" class="edge">
<title>show&#45;&gt;done</title>
<path fill="none" stroke="black" d="M61,-578.74C61,-557.76 61,-521.28 61,-490 61,-490 61,-490 61,-171 61,-149.5 77.07,-133.45 95.55,-122.11"/>
<polygon fill="black" stroke="black" points="97.48,-125.04 104.46,-117.07 94.03,-118.94 97.48,-125.04"/>
</g>
<!-- list -->
<g id="node6" class="node">
<title>list</title>
<path fill="none" stroke="black" d="M204,-507C204,-507 88,-507 88,-507 82,-507 76,-501 76,-495 76,-495 76,-483 76,-483 76,-477 82,-471 88,-471 88,-471 204,-471 204,-471 210,-471 216,-477 216,-483 216,-483 216,-495 216,-495 216,-501 210,-507 204,-507"/>
<text text-anchor="middle" x="146" y="-492.2" font-family="Arial" font-size="11.00">Read core.plugin_registry</text>
<text text-anchor="middle" x="146" y="-480.2" font-family="Arial" font-size="11.00">and display status</text>
</g>
<!-- listq&#45;&gt;list -->
<g id="edge5" class="edge">
<title>listq&#45;&gt;list</title>
<path fill="none" stroke="black" d="M153.16,-633.18C151.78,-605.64 149.03,-550.69 147.37,-517.45"/>
<polygon fill="black" stroke="black" points="150.85,-516.89 146.85,-507.08 143.86,-517.24 150.85,-516.89"/>
<text text-anchor="middle" x="160.5" y="-594.8" font-family="Arial" font-size="9.00">yes</text>
</g>
<!-- adminq -->
<g id="node7" class="node">
<title>adminq</title>
<path fill="none" stroke="black" d="M239.31,-558.28C239.31,-558.28 185.41,-545.72 185.41,-545.72 179.57,-544.36 179.57,-541.64 185.41,-540.28 185.41,-540.28 239.31,-527.72 239.31,-527.72 245.16,-526.36 256.84,-526.36 262.69,-527.72 262.69,-527.72 316.59,-540.28 316.59,-540.28 322.43,-541.64 322.43,-544.36 316.59,-545.72 316.59,-545.72 262.69,-558.28 262.69,-558.28 256.84,-559.64 245.16,-559.64 239.31,-558.28"/>
<text text-anchor="middle" x="251" y="-540.2" font-family="Arial" font-size="11.00">Administration?</text>
</g>
<!-- listq&#45;&gt;adminq -->
<g id="edge6" class="edge">
<title>listq&#45;&gt;adminq</title>
<path fill="none" stroke="black" d="M166.68,-636.14C183.07,-618.23 211.8,-586.83 231.11,-565.73"/>
<polygon fill="black" stroke="black" points="233.84,-567.94 238.01,-558.2 228.67,-563.21 233.84,-567.94"/>
<text text-anchor="middle" x="221.5" y="-594.8" font-family="Arial" font-size="9.00">no</text>
</g>
<!-- list&#45;&gt;done -->
<g id="edge15" class="edge">
<title>list&#45;&gt;done</title>
<path fill="none" stroke="black" d="M142.06,-470.85C137.61,-449.97 131,-413.6 131,-382 131,-382 131,-382 131,-171 131,-156.1 134.95,-140.02 139.25,-126.93"/>
<polygon fill="black" stroke="black" points="142.67,-127.76 142.71,-117.16 136.08,-125.43 142.67,-127.76"/>
</g>
<!-- admin -->
<g id="node8" class="node">
<title>admin</title>
<path fill="none" stroke="black" d="M332,-399C332,-399 158,-399 158,-399 152,-399 146,-393 146,-387 146,-387 146,-375 146,-375 146,-369 152,-363 158,-363 158,-363 332,-363 332,-363 338,-363 344,-369 344,-375 344,-375 344,-387 344,-387 344,-393 338,-399 332,-399"/>
<text text-anchor="middle" x="245" y="-384.2" font-family="Arial" font-size="11.00">Register / unregister / enable / disable</text>
<text text-anchor="middle" x="245" y="-372.2" font-family="Arial" font-size="11.00">selected plugin ids or all</text>
</g>
<!-- adminq&#45;&gt;admin -->
<g id="edge7" class="edge">
<title>adminq&#45;&gt;admin</title>
<path fill="none" stroke="black" d="M250.36,-524.88C249.33,-497.35 247.29,-443.01 246.04,-409.85"/>
<polygon fill="black" stroke="black" points="249.53,-409.35 245.66,-399.48 242.53,-409.61 249.53,-409.35"/>
<text text-anchor="middle" x="256.5" y="-486.8" font-family="Arial" font-size="9.00">yes</text>
</g>
<!-- run -->
<g id="node9" class="node">
<title>run</title>
<path fill="none" stroke="black" d="M445.5,-453C445.5,-453 284.5,-453 284.5,-453 278.5,-453 272.5,-447 272.5,-441 272.5,-441 272.5,-429 272.5,-429 272.5,-423 278.5,-417 284.5,-417 284.5,-417 445.5,-417 445.5,-417 451.5,-417 457.5,-423 457.5,-429 457.5,-429 457.5,-441 457.5,-441 457.5,-447 451.5,-453 445.5,-453"/>
<text text-anchor="middle" x="365" y="-438.2" font-family="Arial" font-size="11.00">Read registry and configuration</text>
<text text-anchor="middle" x="365" y="-426.2" font-family="Arial" font-size="11.00">Resolve enabled registered plugins</text>
</g>
<!-- adminq&#45;&gt;run -->
<g id="edge8" class="edge">
<title>adminq&#45;&gt;run</title>
<path fill="none" stroke="black" d="M265.9,-528.14C284.48,-510.87 316.52,-481.08 339.13,-460.05"/>
<polygon fill="black" stroke="black" points="341.76,-462.39 346.7,-453.02 336.99,-457.26 341.76,-462.39"/>
<text text-anchor="middle" x="339.5" y="-486.8" font-family="Arial" font-size="9.00">no / run</text>
</g>
<!-- admin&#45;&gt;done -->
<g id="edge16" class="edge">
<title>admin&#45;&gt;done</title>
<path fill="none" stroke="black" d="M218.42,-362.77C196.5,-346.24 169,-319.11 169,-287 169,-287 169,-287 169,-171 169,-156.1 165.05,-140.02 160.75,-126.93"/>
<polygon fill="black" stroke="black" points="163.92,-125.43 157.29,-117.16 157.33,-127.76 163.92,-125.43"/>
</g>
<!-- dry -->
<g id="node10" class="node">
<title>dry</title>
<path fill="none" stroke="black" d="M353.7,-340.96C353.7,-340.96 325.95,-331.04 325.95,-331.04 320.3,-329.02 320.3,-324.98 325.95,-322.96 325.95,-322.96 353.7,-313.04 353.7,-313.04 359.35,-311.02 370.65,-311.02 376.3,-313.04 376.3,-313.04 404.05,-322.96 404.05,-322.96 409.7,-324.98 409.7,-329.02 404.05,-331.04 404.05,-331.04 376.3,-340.96 376.3,-340.96 370.65,-342.98 359.35,-342.98 353.7,-340.96"/>
<text text-anchor="middle" x="365" y="-324.2" font-family="Arial" font-size="11.00">Dry run?</text>
</g>
<!-- run&#45;&gt;dry -->
<g id="edge9" class="edge">
<title>run&#45;&gt;dry</title>
<path fill="none" stroke="black" d="M365,-416.97C365,-400.38 365,-374.88 365,-355.43"/>
<polygon fill="black" stroke="black" points="368.5,-355.34 365,-345.34 361.5,-355.34 368.5,-355.34"/>
</g>
<!-- dryrun -->
<g id="node11" class="node">
<title>dryrun</title>
<path fill="none" stroke="black" d="M342.5,-263C342.5,-263 215.5,-263 215.5,-263 209.5,-263 203.5,-257 203.5,-251 203.5,-251 203.5,-239 203.5,-239 203.5,-233 209.5,-227 215.5,-227 215.5,-227 342.5,-227 342.5,-227 348.5,-227 354.5,-233 354.5,-239 354.5,-239 354.5,-251 354.5,-251 354.5,-257 348.5,-263 342.5,-263"/>
<text text-anchor="middle" x="279" y="-248.2" font-family="Arial" font-size="11.00">No&#45;op audit and unavailable</text>
<text text-anchor="middle" x="279" y="-236.2" font-family="Arial" font-size="11.00">plugin data resource</text>
</g>
<!-- dry&#45;&gt;dryrun -->
<g id="edge10" class="edge">
<title>dry&#45;&gt;dryrun</title>
<path fill="none" stroke="black" d="M351.56,-313.5C339.17,-301.97 320.43,-284.54 305.1,-270.28"/>
<polygon fill="black" stroke="black" points="307.15,-267.41 297.45,-263.16 302.39,-272.54 307.15,-267.41"/>
<text text-anchor="middle" x="334.5" y="-283.8" font-family="Arial" font-size="9.00">yes</text>
</g>
<!-- writerun -->
<g id="node12" class="node">
<title>writerun</title>
<path fill="none" stroke="black" d="M505.5,-263C505.5,-263 384.5,-263 384.5,-263 378.5,-263 372.5,-257 372.5,-251 372.5,-251 372.5,-239 372.5,-239 372.5,-233 378.5,-227 384.5,-227 384.5,-227 505.5,-227 505.5,-227 511.5,-227 517.5,-233 517.5,-239 517.5,-239 517.5,-251 517.5,-251 517.5,-257 511.5,-263 505.5,-263"/>
<text text-anchor="middle" x="445" y="-242.2" font-family="Arial" font-size="11.00">Write pool and JDBC audit</text>
</g>
<!-- dry&#45;&gt;writerun -->
<g id="edge11" class="edge">
<title>dry&#45;&gt;writerun</title>
<path fill="none" stroke="black" d="M377.85,-313.15C389.33,-301.67 406.46,-284.54 420.54,-270.46"/>
<polygon fill="black" stroke="black" points="423.4,-272.55 427.99,-263.01 418.45,-267.6 423.4,-272.55"/>
<text text-anchor="middle" x="414.5" y="-283.8" font-family="Arial" font-size="9.00">no</text>
</g>
<!-- exec -->
<g id="node13" class="node">
<title>exec</title>
<path fill="none" stroke="black" d="M361.5,-190C361.5,-190 208.5,-190 208.5,-190 202.5,-190 196.5,-184 196.5,-178 196.5,-178 196.5,-166 196.5,-166 196.5,-160 202.5,-154 208.5,-154 208.5,-154 361.5,-154 361.5,-154 367.5,-154 373.5,-160 373.5,-166 373.5,-166 373.5,-178 373.5,-178 373.5,-184 367.5,-190 361.5,-190"/>
<text text-anchor="middle" x="285" y="-175.2" font-family="Arial" font-size="11.00">Execute with bounded parallelism</text>
<text text-anchor="middle" x="285" y="-163.2" font-family="Arial" font-size="11.00">Log ordered summaries</text>
</g>
<!-- dryrun&#45;&gt;exec -->
<g id="edge12" class="edge">
<title>dryrun&#45;&gt;exec</title>
<path fill="none" stroke="black" d="M280.45,-226.81C281.13,-218.79 281.95,-209.05 282.71,-200.07"/>
<polygon fill="black" stroke="black" points="286.21,-200.29 283.56,-190.03 279.23,-199.7 286.21,-200.29"/>
</g>
<!-- writerun&#45;&gt;exec -->
<g id="edge13" class="edge">
<title>writerun&#45;&gt;exec</title>
<path fill="none" stroke="black" d="M406.68,-226.99C384.48,-217.14 356.34,-204.66 332.71,-194.17"/>
<polygon fill="black" stroke="black" points="334.13,-190.97 323.57,-190.11 331.29,-197.37 334.13,-190.97"/>
</g>
<!-- exec&#45;&gt;done -->
<g id="edge17" class="edge">
<title>exec&#45;&gt;done</title>
<path fill="none" stroke="black" d="M252.66,-153.99C234.35,-144.36 211.24,-132.21 191.58,-121.87"/>
<polygon fill="black" stroke="black" points="193.02,-118.67 182.54,-117.11 189.76,-124.87 193.02,-118.67"/>
</g>
<!-- stop -->
<g id="node15" class="node">
<title>stop</title>
<ellipse fill="none" stroke="black" cx="150" cy="-22" rx="18" ry="18"/>
<ellipse fill="none" stroke="black" cx="150" cy="-22" rx="22" ry="22"/>
</g>
<!-- done&#45;&gt;stop -->
<g id="edge18" class="edge">
<title>done&#45;&gt;stop</title>
<path fill="none" stroke="black" d="M150,-80.98C150,-73.15 150,-63.61 150,-54.54"/>
<polygon fill="black" stroke="black" points="153.5,-54.24 150,-44.24 146.5,-54.24 153.5,-54.24"/>
</g>
</g>
</svg>
