<svg xmlns="http://www.w3.org/2000/svg" xmlns:xlink="http://www.w3.org/1999/xlink" contentStyleType="text/css" data-diagram-type="DESCRIPTION" height="422px" preserveAspectRatio="none" style="width:862px;height:422px;background:#FFFFFF;" version="1.1" viewBox="0 0 862 422" width="862px" zoomAndPan="magnify"><?plantuml 1.2026.6?><defs/><g><g class="title" data-source-line="2"><text fill="#000000" font-family="sans-serif" font-size="14" font-weight="700" lengthAdjust="spacing" textLength="234.1924" x="310.4038" y="24.5332">Database Persistence Components</text></g><!--cluster Runtime audit--><g class="cluster" data-qualified-name="Runtime audit" data-source-line="5" id="ent0001"><path d="M224.5,124.6094 L318.8311,124.6094 A3.75,3.75 0 0 1 321.3311,127.1094 L328.3311,148.2188 L381.5,148.2188 A2.5,2.5 0 0 1 384,150.7188 L384,196.1094 A2.5,2.5 0 0 1 381.5,198.6094 L224.5,198.6094 A2.5,2.5 0 0 1 222,196.1094 L222,127.1094 A2.5,2.5 0 0 1 224.5,124.6094" fill="none" style="stroke:#000000;stroke-width:1.5;"/><line style="stroke:#000000;stroke-width:1.5;" x1="222" x2="328.3311" y1="148.2188" y2="148.2188"/><text fill="#000000" font-family="sans-serif" font-size="14" font-weight="700" lengthAdjust="spacing" textLength="93.3311" x="226" y="141.1426">Runtime audit</text></g><!--cluster Ofgem--><g class="cluster" data-qualified-name="Ofgem" data-source-line="9" id="ent0003"><path d="M394.5,50.6094 L439.8379,50.6094 A3.75,3.75 0 0 1 442.3379,53.1094 L449.3379,74.2188 L637.5,74.2188 A2.5,2.5 0 0 1 640,76.7188 L640,196.1094 A2.5,2.5 0 0 1 637.5,198.6094 L394.5,198.6094 A2.5,2.5 0 0 1 392,196.1094 L392,53.1094 A2.5,2.5 0 0 1 394.5,50.6094" fill="none" style="stroke:#000000;stroke-width:1.5;"/><line style="stroke:#000000;stroke-width:1.5;" x1="392" x2="449.3379" y1="74.2188" y2="74.2188"/><text fill="#000000" font-family="sans-serif" font-size="14" font-weight="700" lengthAdjust="spacing" textLength="44.3379" x="396" y="67.1426">Ofgem</text></g><!--cluster OpenMeteo--><g class="cluster" data-qualified-name="OpenMeteo" data-source-line="14" id="ent0006"><path d="M650.5,50.6094 L727.7275,50.6094 A3.75,3.75 0 0 1 730.2275,53.1094 L737.2275,74.2188 L851.5,74.2188 A2.5,2.5 0 0 1 854,76.7188 L854,196.1094 A2.5,2.5 0 0 1 851.5,198.6094 L650.5,198.6094 A2.5,2.5 0 0 1 648,196.1094 L648,53.1094 A2.5,2.5 0 0 1 650.5,50.6094" fill="none" style="stroke:#000000;stroke-width:1.5;"/><line style="stroke:#000000;stroke-width:1.5;" x1="648" x2="737.2275" y1="74.2188" y2="74.2188"/><text fill="#000000" font-family="sans-serif" font-size="14" font-weight="700" lengthAdjust="spacing" textLength="76.2275" x="652" y="67.1426">OpenMeteo</text></g><!--cluster Database access--><g class="cluster" data-qualified-name="Database access" data-source-line="19" id="ent0009"><path d="M16.5,124.6094 L130.3613,124.6094 A3.75,3.75 0 0 1 132.8613,127.1094 L139.8613,148.2188 L211.5,148.2188 A2.5,2.5 0 0 1 214,150.7188 L214,344.1094 A2.5,2.5 0 0 1 211.5,346.6094 L16.5,346.6094 A2.5,2.5 0 0 1 14,344.1094 L14,127.1094 A2.5,2.5 0 0 1 16.5,124.6094" fill="none" style="stroke:#000000;stroke-width:1.5;"/><line style="stroke:#000000;stroke-width:1.5;" x1="14" x2="139.8613" y1="148.2188" y2="148.2188"/><text fill="#000000" font-family="sans-serif" font-size="14" font-weight="700" lengthAdjust="spacing" textLength="112.8613" x="18" y="141.1426">Database access</text></g><!--entity Database--><g class="entity" data-qualified-name="Database" data-source-line="26" id="ent0014"><path d="M15.5,384.6094 C15.5,374.6094 95.9238,374.6094 95.9238,374.6094 C95.9238,374.6094 176.3477,374.6094 176.3477,384.6094 L176.3477,411.2188 C176.3477,421.2188 95.9238,421.2188 95.9238,421.2188 C95.9238,421.2188 15.5,421.2188 15.5,411.2188 L15.5,384.6094" fill="#F1F1F1" style="stroke:#181818;stroke-width:0.5;"/><path d="M15.5,384.6094 C15.5,394.6094 95.9238,394.6094 95.9238,394.6094 C95.9238,394.6094 176.3477,394.6094 176.3477,384.6094" fill="none" style="stroke:#181818;stroke-width:0.5;"/><text fill="#000000" font-family="sans-serif" font-size="14" lengthAdjust="spacing" textLength="140.8477" x="25.5" y="413.1426">OpenData SQL Server</text></g><!--entity PluginAudit--><g class="entity" data-qualified-name="Runtime audit.PluginAudit" data-source-line="6" id="ent0002"><rect fill="#F1F1F1" height="37.6094" rx="2.5" ry="2.5" style="stroke:#181818;stroke-width:0.5;" width="146.082" x="230" y="152.6094"/><text fill="#000000" font-family="sans-serif" font-size="14" lengthAdjust="spacing" textLength="126.082" x="240" y="177.1426">JdbcPluginRunAudit</text></g><!--entity OfgemPlugin--><g class="entity" data-qualified-name="Ofgem.OfgemPlugin" data-source-line="10" id="ent0004"><rect fill="#F1F1F1" height="37.6094" rx="2.5" ry="2.5" style="stroke:#181818;stroke-width:0.5;" width="100.9307" x="465.5" y="78.6094"/><text fill="#000000" font-family="sans-serif" font-size="14" lengthAdjust="spacing" textLength="80.9307" x="475.5" y="103.1426">OfgemPlugin</text></g><!--entity OfgemRepository--><g class="entity" data-qualified-name="Ofgem.OfgemRepository" data-source-line="11" id="ent0005"><rect fill="#F1F1F1" height="37.6094" rx="2.5" ry="2.5" style="stroke:#181818;stroke-width:0.5;" width="232.4336" x="400" y="152.6094"/><text fill="#000000" font-family="sans-serif" font-size="14" lengthAdjust="spacing" textLength="212.4336" x="410" y="177.1426">load.OfgemPersistenceRepository</text></g><!--entity MeteoPlugin--><g class="entity" data-qualified-name="OpenMeteo.MeteoPlugin" data-source-line="15" id="ent0007"><rect fill="#F1F1F1" height="37.6094" rx="2.5" ry="2.5" style="stroke:#181818;stroke-width:0.5;" width="132.0752" x="685" y="78.6094"/><text fill="#000000" font-family="sans-serif" font-size="14" lengthAdjust="spacing" textLength="112.0752" x="695" y="103.1426">OpenMeteoPlugin</text></g><!--entity MeteoRepository--><g class="entity" data-qualified-name="OpenMeteo.MeteoRepository" data-source-line="16" id="ent0008"><rect fill="#F1F1F1" height="37.6094" rx="2.5" ry="2.5" style="stroke:#181818;stroke-width:0.5;" width="190.4336" x="656" y="152.6094"/><text fill="#000000" font-family="sans-serif" font-size="14" lengthAdjust="spacing" textLength="170.4336" x="666" y="177.1426">load.OpenMeteoRepository</text></g><!--entity DatabaseResourceManager--><g class="entity" data-qualified-name="Database access.DatabaseResourceManager" data-source-line="20" id="ent0010"><ellipse cx="197" cy="242.6094" fill="#F1F1F1" rx="8" ry="8" style="stroke:#181818;stroke-width:0.5;"/><text fill="#000000" font-family="sans-serif" font-size="14" lengthAdjust="spacing" textLength="175.1025" x="109.4487" y="274.1426">DatabaseResourceManager</text></g><!--entity Resource--><g class="entity" data-qualified-name="Database access.Resource" data-source-line="21" id="ent0011"><rect fill="#F1F1F1" height="37.6094" rx="2.5" ry="2.5" style="stroke:#181818;stroke-width:0.5;" width="149.165" x="39.5" y="152.6094"/><text fill="#000000" font-family="sans-serif" font-size="14" lengthAdjust="spacing" textLength="129.165" x="49.5" y="177.1426">SQLServerResource</text></g><!--entity Driver--><g class="entity" data-qualified-name="Database access.Driver" data-source-line="22" id="ent0012"><rect fill="#F1F1F1" height="37.6094" rx="2.5" ry="2.5" style="stroke:#181818;stroke-width:0.5;" width="146.8203" x="22.5" y="226.6094"/><text fill="#000000" font-family="sans-serif" font-size="14" lengthAdjust="spacing" textLength="126.8203" x="32.5" y="251.1426">DBCP PoolingDriver</text></g><!--entity Pool--><g class="entity" data-qualified-name="Database access.Pool" data-source-line="23" id="ent0013"><rect fill="#F1F1F1" height="37.6094" rx="2.5" ry="2.5" style="stroke:#181818;stroke-width:0.5;" width="137.5029" x="27" y="300.6094"/><text fill="#000000" font-family="sans-serif" font-size="14" lengthAdjust="spacing" textLength="117.5029" x="37" y="325.1426">GenericObjectPool</text></g><g class="link" data-entity-1="ent0004" data-entity-2="ent0005" data-link-type="dependency" id="lnk15"><polygon fill="#181818" points="516,152.1961,520,143.1961,516,147.1961,512,143.1961,516,152.1961" style="stroke:#181818;stroke-width:1;stroke-linejoin:miter;stroke-miterlimit:10;"/><path d="M516,116.778 C516,127.6094 516,136.3218 516,147.1961" fill="none" style="stroke:#181818;stroke-width:1;"/></g><g class="link" data-entity-1="ent0007" data-entity-2="ent0008" data-link-type="dependency" id="lnk16"><polygon fill="#181818" points="751,152.1961,755,143.1961,751,147.1961,747,143.1961,751,152.1961" style="stroke:#181818;stroke-width:1;stroke-linejoin:miter;stroke-miterlimit:10;"/><path d="M751,116.778 C751,127.6094 751,136.3218 751,147.1961" fill="none" style="stroke:#181818;stroke-width:1;"/></g><g class="link" data-entity-1="ent0002" data-entity-2="ent0010" data-link-type="dependency" id="lnk17"><polygon fill="#181818" points="206.4184,238.2119,216.1109,236.4639,210.5545,235.4025,211.6159,229.8461,206.4184,238.2119" style="stroke:#181818;stroke-width:1;stroke-linejoin:miter;stroke-miterlimit:10;"/><path d="M276.2517,190.778 C253.4365,206.2752 226.0743,224.8608 210.5545,235.4025" fill="none" style="stroke:#181818;stroke-width:1;"/></g><g class="link" data-entity-1="ent0005" data-entity-2="ent0010" data-link-type="dependency" id="lnk18"><polygon fill="#181818" points="206.3683,242.4949,216.0281,244.4153,211.2456,241.3941,214.2667,236.6116,206.3683,242.4949" style="stroke:#181818;stroke-width:1;stroke-linejoin:miter;stroke-miterlimit:10;"/><path d="M435.9146,190.6851 C355.8162,208.7637 244.7217,233.8383 211.2456,241.3941" fill="none" style="stroke:#181818;stroke-width:1;"/></g><g class="link" data-entity-1="ent0008" data-entity-2="ent0010" data-link-type="dependency" id="lnk19"><polygon fill="#181818" points="206.1901,244.1287,215.394,247.6342,211.1827,243.8573,214.9597,239.646,206.1901,244.1287" style="stroke:#181818;stroke-width:1;stroke-linejoin:miter;stroke-miterlimit:10;"/><path d="M682.7915,190.646 C669.9674,193.6203 656.6227,196.4366 644,198.6094 C469.4748,228.6503 257.989,241.3125 211.1827,243.8573" fill="none" style="stroke:#181818;stroke-width:1;"/></g><g class="link" data-entity-1="ent0011" data-entity-2="ent0010" data-link-type="extension" id="lnk20"><polygon fill="none" points="187.8222,235.7121,178.9201,218.9565,170.6471,227.6489,187.8222,235.7121" style="stroke:#181818;stroke-width:1;stroke-linejoin:miter;stroke-miterlimit:10;"/><path d="M136.1865,190.7961 C148.6282,201.1269 164.3455,214.3992 178,226.6094 C181.2516,229.5171 171.6978,220.3658 174.7836,223.3027" fill="none" style="stroke:#181818;stroke-width:1;stroke-dasharray:7,7;"/></g><g class="link" data-entity-1="ent0011" data-entity-2="ent0012" data-link-type="dependency" id="lnk21"><polygon fill="#181818" points="100.6033,226.1961,106.6667,218.435,101.816,221.3454,98.9056,216.4947,100.6033,226.1961" style="stroke:#181818;stroke-width:1;stroke-linejoin:miter;stroke-miterlimit:10;"/><path d="M109.4578,190.778 C106.75,201.6094 104.5346,210.4711 101.816,221.3454" fill="none" style="stroke:#181818;stroke-width:1;"/></g><g class="link" data-entity-1="ent0012" data-entity-2="ent0013" data-link-type="dependency" id="lnk22"><polygon fill="#181818" points="96,300.1961,100,291.1961,96,295.1961,92,291.1961,96,300.1961" style="stroke:#181818;stroke-width:1;stroke-linejoin:miter;stroke-miterlimit:10;"/><path d="M96,264.778 C96,275.6094 96,284.3218 96,295.1961" fill="none" style="stroke:#181818;stroke-width:1;"/></g><g class="link" data-entity-1="ent0013" data-entity-2="ent0014" data-link-type="dependency" id="lnk23"><polygon fill="#181818" points="96,374.4528,100,365.4528,96,369.4528,92,365.4528,96,374.4528" style="stroke:#181818;stroke-width:1;stroke-linejoin:miter;stroke-miterlimit:10;"/><path d="M96,338.7388 C96,349.4313 96,358.0562 96,369.4528" fill="none" style="stroke:#181818;stroke-width:1;"/></g><?plantuml-src ZP7FJiCm3CRlUGgp-_O8IB19I8XfPJqY3bxgHM5jKYKfKWMyE_cpqAo8YSiQsv_zypxVz0P5Xz3Yg0S7jYE72fcJhYNOeCC3MeAAZ9NMaU84QztrMf5objcJL3qQx83dPEr6tsY8-p6Y9SPwv2SK18lze9pi271ef5l01mDuUMmEl6e78PMlteN2Aw25b8en-of6x8w2kdDhV2TXx2dYK6urDgkKctRVKw-jTDgCKykKkqJrfBRaI6TSZWja4K_8h9knPhaBre_Do3bPcuXIEJ97vDCLzcJrO3Xj_O44cO2idvzgCkzaSYsoSX0Kc_jr1PNMhLHYOwINHabw1i43AJAIxmvl_cP1c2xW7s779gyM3GcRW6T2WYxYfBE2iU82i5pU_hAti2lMvvOKLu_rl_xtREvLxOnnLPjZMAq-_w6AevADwHCpqRZmSu7w1W00?></g></svg>