<?xml version="1.0" encoding="UTF-8" standalone="no"?>
<!DOCTYPE svg PUBLIC "-//W3C//DTD SVG 1.1//EN"
 "http://www.w3.org/Graphics/SVG/1.1/DTD/svg11.dtd">
<!-- Generated by graphviz version 2.42.4 (0)
 -->
<!-- Title: G Pages: 1 -->
<svg width="629pt" height="392pt"
 viewBox="0.00 0.00 628.76 392.00" xmlns="http://www.w3.org/2000/svg" xmlns:xlink="http://www.w3.org/1999/xlink">
<g id="graph0" class="graph" transform="scale(1 1) rotate(0) translate(4 388)">
<title>G</title>
<polygon fill="white" stroke="transparent" points="-4,4 -4,-388 624.76,-388 624.76,4 -4,4"/>
<text text-anchor="middle" x="310.38" y="-364" font-family="Arial" font-size="20.00">OpenData Documentation Hierarchy</text>
<g id="clust1" class="cluster">
<title>cluster_entry</title>
<polygon fill="none" stroke="black" points="41.76,-264 41.76,-346 481.76,-346 481.76,-264 41.76,-264"/>
<text text-anchor="middle" x="261.76" y="-326" font-family="Arial" font-size="20.00">Repository entry points</text>
</g>
<g id="clust2" class="cluster">
<title>cluster_docs</title>
<polygon fill="none" stroke="black" points="70.76,-8 70.76,-256 612.76,-256 612.76,-8 70.76,-8"/>
<text text-anchor="middle" x="341.76" y="-236" font-family="Arial" font-size="20.00">docs</text>
</g>
<!-- Readme -->
<g id="node1" class="node">
<title>Readme</title>
<polygon fill="none" stroke="black" points="121.26,-308 50.26,-308 50.26,-272 127.26,-272 127.26,-302 121.26,-308"/>
<polyline fill="none" stroke="black" points="121.26,-308 121.26,-302 "/>
<polyline fill="none" stroke="black" points="127.26,-302 121.26,-302 "/>
<text text-anchor="middle" x="88.76" y="-287.5" font-family="Arial" font-size="10.00">README.md</text>
</g>
<!-- User -->
<g id="node5" class="node">
<title>User</title>
<polygon fill="none" stroke="black" points="140.76,-135 137.76,-139 116.76,-139 113.76,-135 78.76,-135 78.76,-99 140.76,-99 140.76,-135"/>
<text text-anchor="middle" x="109.76" y="-114.5" font-family="Arial" font-size="10.00">user&#45;guide</text>
</g>
<!-- Readme&#45;&gt;User -->
<g id="edge1" class="edge">
<title>Readme&#45;&gt;User</title>
<path fill="none" stroke="black" d="M50.08,-281.55C35.87,-276.75 21.21,-268.87 12.76,-256 -5.28,-228.5 -2.82,-210.96 12.76,-182 24.84,-159.56 48.61,-143.68 69.6,-133.36"/>
<polygon fill="black" stroke="black" points="71.1,-136.52 78.69,-129.13 68.15,-130.17 71.1,-136.52"/>
</g>
<!-- Architecture -->
<g id="node6" class="node">
<title>Architecture</title>
<polygon fill="none" stroke="black" points="238.76,-135 235.76,-139 214.76,-139 211.76,-135 170.76,-135 170.76,-99 238.76,-99 238.76,-135"/>
<text text-anchor="middle" x="204.76" y="-114.5" font-family="Arial" font-size="10.00">architecture</text>
</g>
<!-- Readme&#45;&gt;Architecture -->
<g id="edge2" class="edge">
<title>Readme&#45;&gt;Architecture</title>
<path fill="none" stroke="black" d="M74.59,-271.82C71.38,-266.99 68.44,-261.54 66.76,-256 57.23,-224.52 49.06,-209.72 66.76,-182 72.33,-173.28 122.8,-151.25 161.11,-135.48"/>
<polygon fill="black" stroke="black" points="162.62,-138.64 170.55,-131.61 159.97,-132.16 162.62,-138.64"/>
</g>
<!-- Release -->
<g id="node2" class="node">
<title>Release</title>
<polygon fill="none" stroke="black" points="270.26,-308 157.26,-308 157.26,-272 276.26,-272 276.26,-302 270.26,-308"/>
<polyline fill="none" stroke="black" points="270.26,-308 270.26,-302 "/>
<polyline fill="none" stroke="black" points="276.26,-302 270.26,-302 "/>
<text text-anchor="middle" x="216.76" y="-287.5" font-family="Arial" font-size="10.00">RELEASE_NOTES.md</text>
</g>
<!-- ReleaseDocs -->
<g id="node12" class="node">
<title>ReleaseDocs</title>
<polygon fill="none" stroke="black" points="265.26,-218 262.26,-222 241.26,-222 238.26,-218 168.26,-218 168.26,-182 265.26,-182 265.26,-218"/>
<text text-anchor="middle" x="216.76" y="-197.5" font-family="Arial" font-size="10.00">release / migration</text>
</g>
<!-- Release&#45;&gt;ReleaseDocs -->
<g id="edge3" class="edge">
<title>Release&#45;&gt;ReleaseDocs</title>
<path fill="none" stroke="black" d="M216.76,-271.61C216.76,-259.24 216.76,-242.37 216.76,-228.22"/>
<polygon fill="black" stroke="black" points="220.26,-228.05 216.76,-218.05 213.26,-228.05 220.26,-228.05"/>
</g>
<!-- Security -->
<g id="node3" class="node">
<title>Security</title>
<polygon fill="none" stroke="black" points="383.26,-308 306.26,-308 306.26,-272 389.26,-272 389.26,-302 383.26,-308"/>
<polyline fill="none" stroke="black" points="383.26,-308 383.26,-302 "/>
<polyline fill="none" stroke="black" points="389.26,-302 383.26,-302 "/>
<text text-anchor="middle" x="347.76" y="-287.5" font-family="Arial" font-size="10.00">SECURITY.md</text>
</g>
<!-- Operations -->
<g id="node9" class="node">
<title>Operations</title>
<polygon fill="none" stroke="black" points="330.76,-135 327.76,-139 306.76,-139 303.76,-135 268.76,-135 268.76,-99 330.76,-99 330.76,-135"/>
<text text-anchor="middle" x="299.76" y="-114.5" font-family="Arial" font-size="10.00">operations</text>
</g>
<!-- Security&#45;&gt;Operations -->
<g id="edge4" class="edge">
<title>Security&#45;&gt;Operations</title>
<path fill="none" stroke="black" d="M361.3,-271.74C364.36,-266.91 367.17,-261.48 368.76,-256 377.96,-224.42 381.92,-212.14 368.76,-182 361.73,-165.88 348.41,-152 335.33,-141.32"/>
<polygon fill="black" stroke="black" points="337.33,-138.45 327.28,-135.1 333.05,-143.99 337.33,-138.45"/>
</g>
<!-- Notices -->
<g id="node4" class="node">
<title>Notices</title>
<polygon fill="none" stroke="black" points="467.76,-308 419.76,-308 419.76,-272 473.76,-272 473.76,-302 467.76,-308"/>
<polyline fill="none" stroke="black" points="467.76,-308 467.76,-302 "/>
<polyline fill="none" stroke="black" points="473.76,-302 467.76,-302 "/>
<text text-anchor="middle" x="446.76" y="-287.5" font-family="Arial" font-size="10.00">Notices</text>
</g>
<!-- Reference -->
<g id="node10" class="node">
<title>Reference</title>
<polygon fill="none" stroke="black" points="418.26,-135 415.26,-139 394.26,-139 391.26,-135 361.26,-135 361.26,-99 418.26,-99 418.26,-135"/>
<text text-anchor="middle" x="389.76" y="-114.5" font-family="Arial" font-size="10.00">reference</text>
</g>
<!-- Notices&#45;&gt;Reference -->
<g id="edge5" class="edge">
<title>Notices&#45;&gt;Reference</title>
<path fill="none" stroke="black" d="M441.09,-271.98C431.17,-242.22 410.61,-180.53 398.74,-144.93"/>
<polygon fill="black" stroke="black" points="401.98,-143.59 395.5,-135.21 395.34,-145.8 401.98,-143.59"/>
</g>
<!-- Manifests -->
<g id="node14" class="node">
<title>Manifests</title>
<polygon fill="none" stroke="black" points="374.26,-52 371.26,-56 350.26,-56 347.26,-52 315.26,-52 315.26,-16 374.26,-16 374.26,-52"/>
<text text-anchor="middle" x="344.76" y="-31.5" font-family="Arial" font-size="10.00">manifests</text>
</g>
<!-- User&#45;&gt;Manifests -->
<g id="edge6" class="edge">
<title>User&#45;&gt;Manifests</title>
<path fill="none" stroke="black" d="M140.9,-104.36C145.86,-102.54 150.95,-100.7 155.76,-99 207.33,-80.75 267.18,-60.66 305.48,-47.95"/>
<polygon fill="black" stroke="black" points="306.82,-51.2 315.21,-44.73 304.62,-44.55 306.82,-51.2"/>
</g>
<!-- Architecture&#45;&gt;Manifests -->
<g id="edge7" class="edge">
<title>Architecture&#45;&gt;Manifests</title>
<path fill="none" stroke="black" d="M234.45,-98.82C255.43,-86.69 283.73,-70.31 306.41,-57.19"/>
<polygon fill="black" stroke="black" points="308.21,-60.19 315.12,-52.15 304.71,-54.13 308.21,-60.19"/>
</g>
<!-- Plugins -->
<g id="node7" class="node">
<title>Plugins</title>
<polygon fill="none" stroke="black" points="604.76,-135 601.76,-139 580.76,-139 577.76,-135 550.76,-135 550.76,-99 604.76,-99 604.76,-135"/>
<text text-anchor="middle" x="577.76" y="-114.5" font-family="Arial" font-size="10.00">plugins</text>
</g>
<!-- Plugins&#45;&gt;Manifests -->
<g id="edge8" class="edge">
<title>Plugins&#45;&gt;Manifests</title>
<path fill="none" stroke="black" d="M550.75,-104.78C545.78,-102.8 540.63,-100.8 535.76,-99 483.82,-79.81 423.06,-59.87 384.26,-47.45"/>
<polygon fill="black" stroke="black" points="385,-44.02 374.41,-44.31 382.87,-50.68 385,-44.02"/>
</g>
<!-- Development -->
<g id="node8" class="node">
<title>Development</title>
<polygon fill="none" stroke="black" points="520.76,-135 517.76,-139 496.76,-139 493.76,-135 448.76,-135 448.76,-99 520.76,-99 520.76,-135"/>
<text text-anchor="middle" x="484.76" y="-114.5" font-family="Arial" font-size="10.00">development</text>
</g>
<!-- Development&#45;&gt;Manifests -->
<g id="edge9" class="edge">
<title>Development&#45;&gt;Manifests</title>
<path fill="none" stroke="black" d="M455.07,-98.82C434.1,-86.69 405.8,-70.31 383.12,-57.19"/>
<polygon fill="black" stroke="black" points="384.82,-54.13 374.41,-52.15 381.31,-60.19 384.82,-54.13"/>
</g>
<!-- Operations&#45;&gt;Manifests -->
<g id="edge10" class="edge">
<title>Operations&#45;&gt;Manifests</title>
<path fill="none" stroke="black" d="M309.31,-98.82C315.39,-87.87 323.4,-73.46 330.26,-61.11"/>
<polygon fill="black" stroke="black" points="333.44,-62.59 335.23,-52.15 327.32,-59.2 333.44,-62.59"/>
</g>
<!-- Reference&#45;&gt;Manifests -->
<g id="edge11" class="edge">
<title>Reference&#45;&gt;Manifests</title>
<path fill="none" stroke="black" d="M380.22,-98.82C374.13,-87.87 366.13,-73.46 359.27,-61.11"/>
<polygon fill="black" stroke="black" points="362.21,-59.2 354.29,-52.15 356.09,-62.59 362.21,-59.2"/>
</g>
<!-- Decisions -->
<g id="node11" class="node">
<title>Decisions</title>
<polygon fill="none" stroke="black" points="353.76,-218 350.76,-222 329.76,-222 326.76,-218 295.76,-218 295.76,-182 353.76,-182 353.76,-218"/>
<text text-anchor="middle" x="324.76" y="-197.5" font-family="Arial" font-size="10.00">decisions</text>
</g>
<!-- Decisions&#45;&gt;Architecture -->
<g id="edge12" class="edge">
<title>Decisions&#45;&gt;Architecture</title>
<path fill="none" stroke="black" d="M299.31,-181.82C281.65,-169.9 257.94,-153.89 238.67,-140.89"/>
<polygon fill="black" stroke="black" points="240.42,-137.85 230.18,-135.15 236.51,-143.65 240.42,-137.85"/>
</g>
<!-- Diagrams -->
<g id="node13" class="node">
<title>Diagrams</title>
<polygon fill="none" stroke="black" points="137.76,-218 134.76,-222 113.76,-222 110.76,-218 81.76,-218 81.76,-182 137.76,-182 137.76,-218"/>
<text text-anchor="middle" x="109.76" y="-197.5" font-family="Arial" font-size="10.00">diagrams</text>
</g>
<!-- Diagrams&#45;&gt;User -->
<g id="edge13" class="edge">
<title>Diagrams&#45;&gt;User</title>
<path fill="none" stroke="black" d="M109.76,-181.82C109.76,-171.19 109.76,-157.31 109.76,-145.2"/>
<polygon fill="black" stroke="black" points="113.26,-145.15 109.76,-135.15 106.26,-145.15 113.26,-145.15"/>
</g>
<!-- Diagrams&#45;&gt;Architecture -->
<g id="edge14" class="edge">
<title>Diagrams&#45;&gt;Architecture</title>
<path fill="none" stroke="black" d="M129.91,-181.82C143.51,-170.22 161.66,-154.75 176.67,-141.95"/>
<polygon fill="black" stroke="black" points="179.31,-144.3 184.65,-135.15 174.77,-138.98 179.31,-144.3"/>
</g>
</g>
</svg>
