<?plantuml 1.2026.1?><svg xmlns="http://www.w3.org/2000/svg" xmlns:xlink="http://www.w3.org/1999/xlink" contentStyleType="text/css" data-diagram-type="STATE" height="330px" preserveAspectRatio="none" style="width:777px;height:330px;background:#FFFFFF;" version="1.1" viewBox="0 0 777 330" width="777px" zoomAndPan="magnify"><title>Ingestion run status lifecycle</title><defs/><g><g class="title" data-source-line="2"><text fill="#000000" font-family="sans-serif" font-size="14" font-weight="bold" lengthAdjust="spacing" textLength="230.2275" x="222.6362" y="22.9951">Ingestion run status lifecycle</text></g><ellipse cx="366.5" cy="59.2969" fill="#222222" rx="10" ry="10" style="stroke:#222222;stroke-width:1;"/><g><rect fill="#F1F1F1" height="50" rx="12.5" ry="12.5" style="stroke:#181818;stroke-width:0.5;" width="84.9209" x="324" y="110.2969"/><line style="stroke:#181818;stroke-width:0.5;" x1="324" x2="408.9209" y1="136.5938" y2="136.5938"/><text fill="#000000" font-family="sans-serif" font-size="14" lengthAdjust="spacing" textLength="64.9209" x="334" y="128.292">STARTED</text></g><g><rect fill="#F1F1F1" height="50" rx="12.5" ry="12.5" style="stroke:#181818;stroke-width:0.5;" width="106.7822" x="6" y="215.2969"/><line style="stroke:#181818;stroke-width:0.5;" x1="6" x2="112.7822" y1="241.5938" y2="241.5938"/><text fill="#000000" font-family="sans-serif" font-size="14" lengthAdjust="spacing" textLength="86.7822" x="16" y="233.292">SUCCEEDED</text></g><g><rect fill="#F1F1F1" height="50" rx="12.5" ry="12.5" style="stroke:#181818;stroke-width:0.5;" width="242.2158" x="139.5" y="215.2969"/><line style="stroke:#181818;stroke-width:0.5;" x1="139.5" x2="381.7158" y1="241.5938" y2="241.5938"/><text fill="#000000" font-family="sans-serif" font-size="14" lengthAdjust="spacing" textLength="222.2158" x="149.5" y="233.292">SUCCEEDED_WITH_REJECTIONS</text></g><g><rect fill="#F1F1F1" height="50" rx="12.5" ry="12.5" style="stroke:#181818;stroke-width:0.5;" width="69.1846" x="428" y="215.2969"/><line style="stroke:#181818;stroke-width:0.5;" x1="428" x2="497.1846" y1="241.5938" y2="241.5938"/><text fill="#000000" font-family="sans-serif" font-size="14" lengthAdjust="spacing" textLength="49.1846" x="438" y="233.292">FAILED</text></g><g><rect fill="#F1F1F1" height="50" rx="12.5" ry="12.5" style="stroke:#181818;stroke-width:0.5;" width="103.6719" x="572.5" y="215.2969"/><line style="stroke:#181818;stroke-width:0.5;" x1="572.5" x2="676.1719" y1="241.5938" y2="241.5938"/><text fill="#000000" font-family="sans-serif" font-size="14" lengthAdjust="spacing" textLength="83.6719" x="582.5" y="233.292">CANCELLED</text></g><ellipse cx="360.5" cy="313.2969" fill="none" rx="11" ry="11" style="stroke:#222222;stroke-width:1;"/><ellipse cx="360.5" cy="313.2969" fill="#222222" rx="6" ry="6" style="stroke:#222222;stroke-width:1;"/><g class="link" data-entity-1="ent0002" data-entity-2="ent0003" data-link-type="dependency" id="lnk4"><polygon fill="#181818" points="366.5,110.0213,370.5,101.0213,366.5,105.0213,362.5,101.0213,366.5,110.0213" style="stroke:#181818;stroke-width:1;"/><path d="M366.5,73.5469 C366.5,83.2764 366.5,91.6806 366.5,104.0213" fill="none" style="stroke:#181818;stroke-width:1;"/></g><g class="link" data-entity-1="ent0003" data-entity-2="ent0005" data-link-type="dependency" id="lnk6"><polygon fill="#181818" points="46.6128,215.0702,47.1922,205.2384,44.8544,210.3896,39.7032,208.0519,46.6128,215.0702" style="stroke:#181818;stroke-width:1;"/><path d="M323.9866,138.8372 C241.5369,144.199 66.3955,157.8824 48.5,178.2969 C39.7749,188.2501 39.8633,197.1041 44.5027,209.4535" fill="none" style="stroke:#181818;stroke-width:1;"/><text fill="#000000" font-family="sans-serif" font-size="13" lengthAdjust="spacing" textLength="183.0601" x="50.5" y="192.3638">all required work completed</text></g><g class="link" data-entity-1="ent0003" data-entity-2="ent0007" data-link-type="dependency" id="lnk8"><polygon fill="#181818" points="244.7061,215.0265,244.4842,205.1802,242.573,210.5044,237.2488,208.5931,244.7061,215.0265" style="stroke:#181818;stroke-width:1;"/><path d="M323.7388,138.6972 C295.9423,142.743 261.6152,152.969 243.5,178.2969 C235.8253,189.0274 236.5212,197.6748 242.1464,209.5999" fill="none" style="stroke:#181818;stroke-width:1;"/><text fill="#000000" font-family="sans-serif" font-size="13" lengthAdjust="spacing" textLength="214.7158" x="245.5" y="192.3638">completed under rejection policy</text></g><g class="link" data-entity-1="ent0003" data-entity-2="ent0009" data-link-type="dependency" id="lnk10"><polygon fill="#181818" points="470.0315,215.2223,475.6314,207.1204,470.9589,210.3091,467.7702,205.6366,470.0315,215.2223" style="stroke:#181818;stroke-width:1;"/><path d="M409.1428,143.161 C429.8528,148.8751 452.9263,159.3041 465.5,178.2969 C472.5823,188.9947 473.4122,197.3115 471.1443,209.3265" fill="none" style="stroke:#181818;stroke-width:1;"/><text fill="#000000" font-family="sans-serif" font-size="13" lengthAdjust="spacing" textLength="125.9312" x="473.5" y="192.3638">required stage fails</text></g><g class="link" data-entity-1="ent0003" data-entity-2="ent0011" data-link-type="dependency" id="lnk12"><polygon fill="#181818" points="622.4736,215.199,624.778,205.6235,621.5683,210.2816,616.9102,207.0719,622.4736,215.199" style="stroke:#181818;stroke-width:1;"/><path d="M409.1784,138.6457 C469.6015,142.8147 575.9297,153.5244 604.5,178.2969 C615.1098,187.4963 619.0342,196.5164 621.3873,209.2981" fill="none" style="stroke:#181818;stroke-width:1;"/><text fill="#000000" font-family="sans-serif" font-size="13" lengthAdjust="spacing" textLength="148.8525" x="619.5" y="192.3638">deliberate cancellation</text></g><g class="link" data-entity-1="ent0003" data-entity-2="ent0003" data-link-type="dependency" id="lnk13"><polygon fill="#181818" points="409.1834,143.033,418.4036,146.4952,414.1747,142.7381,417.9318,138.5091,409.1834,143.033" style="stroke:#181818;stroke-width:1;"/><path d="M409.1834,127.5608 C419.4172,128.1654 427,130.7441 427,135.2969 C427,139.8496 425.4067,142.0744 415.1729,142.6791" fill="none" style="stroke:#181818;stroke-width:1;"/><text fill="#000000" font-family="sans-serif" font-size="13" lengthAdjust="spacing" textLength="307.3662" x="429" y="139.8638">process termination may leave abandoned row</text></g><g class="link" data-entity-1="ent0005" data-entity-2="ent0014" data-link-type="dependency" id="lnk15"><polygon fill="#181818" points="349.3762,311.465,341.1622,306.0308,344.4451,310.6376,339.8383,313.9205,349.3762,311.465" style="stroke:#181818;stroke-width:1;"/><path d="M113.176,260.1976 C118.9933,262.0194 124.8505,263.7585 130.5,265.2969 C213.5449,287.9102 310.0256,304.8621 343.4589,310.4721" fill="none" style="stroke:#181818;stroke-width:1;"/></g><g class="link" data-entity-1="ent0007" data-entity-2="ent0014" data-link-type="dependency" id="lnk16"><polygon fill="#181818" points="349.1079,305.0945,344.1413,296.5897,345.0502,302.173,339.4668,303.0819,349.1079,305.0945" style="stroke:#181818;stroke-width:1;"/><path d="M294.0767,265.4721 C313.1415,279.1988 330.9207,291.9998 344.2387,301.5887" fill="none" style="stroke:#181818;stroke-width:1;"/></g><g class="link" data-entity-1="ent0009" data-entity-2="ent0014" data-link-type="dependency" id="lnk17"><polygon fill="#181818" points="371.6389,305.4341,381.2983,303.5118,375.7237,302.5507,376.6849,296.9761,371.6389,305.4341" style="stroke:#181818;stroke-width:1;"/><path d="M428.2517,265.4721 C408.5742,279.3622 390.0556,292.4341 376.5407,301.974" fill="none" style="stroke:#181818;stroke-width:1;"/></g><g class="link" data-entity-1="ent0011" data-entity-2="ent0014" data-link-type="dependency" id="lnk18"><polygon fill="#181818" points="371.9577,310.1721,381.693,311.6631,376.7815,308.8565,379.5881,303.9449,371.9577,310.1721" style="stroke:#181818;stroke-width:1;"/><path d="M572.3421,255.5218 C508.9286,272.8163 411.9248,299.2719 377.7463,308.5933" fill="none" style="stroke:#181818;stroke-width:1;"/></g><?plantuml-src TL3BQiD03BplLwZNGduWXu9njjGbf90uz51AK7OLiwsyw-oZmN_VZUCa6DgJf64qCz93vx5f4HXxboA4bY9Q5D549gXiGo4QPy4d2o5YJ07O74ZrYabyF7x2RFO4cxfOrt8Xndh1jcKfvI9FSq1cy7HCnfE6a_FVe5pRCKNIV-_itglwPRUMhxAigxVL9clSDY1PJJxhVP4QedMEZUedGiz5jHoSRwuvUqDmGCDXmYoBLIcN5x8cDdlo60aKMaNCU3QOHXpxENJUAGe18ldMs849BVR0X3y4k4UhdStEtft4_HbdZVmsyV-fLyPumtMy1nsHNm00?></g></svg>