<svg xmlns="http://www.w3.org/2000/svg" xmlns:xlink="http://www.w3.org/1999/xlink" contentStyleType="text/css" data-diagram-type="ACTIVITY" height="1025px" preserveAspectRatio="none" style="width:987px;height:1025px;background:#FFFFFF;" version="1.1" viewBox="0 0 987 1025" width="987px" zoomAndPan="magnify"><?plantuml 1.2026.6?><defs/><g><g class="title" data-source-line="2"><text fill="#000000" font-family="Verdana" font-size="22" font-weight="700" lengthAdjust="spacing" textLength="561.2686" x="212.2896" y="37.1182">OpenData Version 2.0.0 Operational Lifecycle</text></g><ellipse cx="540.6213" cy="67.7373" fill="#FFFFFF" rx="10" ry="10" style="stroke:#000000;stroke-width:1;"/><rect fill="#FFFFFF" height="34.584" rx="12.5" ry="12.5" style="stroke:#000000;stroke-width:1;" width="434.6094" x="323.3167" y="97.7373"/><text fill="#000000" font-family="Verdana" font-size="12" lengthAdjust="spacing" textLength="414.6094" x="333.3167" y="119.8018">Deploy compatible source/package, SQL schema and documentation</text><rect fill="#FFFFFF" height="34.584" rx="12.5" ry="12.5" style="stroke:#000000;stroke-width:1;" width="355.3262" x="362.9583" y="152.3213"/><text fill="#000000" font-family="Verdana" font-size="12" lengthAdjust="spacing" textLength="335.3262" x="372.9583" y="174.3857">Replace bootstrap credential and certificate/private key</text><rect fill="#FFFFFF" height="34.584" rx="12.5" ry="12.5" style="stroke:#000000;stroke-width:1;" width="359.9199" x="360.6614" y="206.9053"/><text fill="#000000" font-family="Verdana" font-size="12" lengthAdjust="spacing" textLength="339.9199" x="370.6614" y="228.9697">Verify registry migration, grants, directories and backup</text><rect fill="#FFFFFF" height="34.584" rx="12.5" ry="12.5" style="stroke:#000000;stroke-width:1;" width="169.2148" x="456.0139" y="310.1736"/><text fill="#000000" font-family="Verdana" font-size="12" lengthAdjust="spacing" textLength="23.5313" x="466.0139" y="332.238">Run</text><text fill="#000000" font-family="Verdana" font-size="12" lengthAdjust="spacing" text-decoration="line-through" textLength="70.957" x="493.7639" y="332.238">plugin id|all</text><text fill="#000000" font-family="Verdana" font-size="12" lengthAdjust="spacing" textLength="46.2891" x="568.9397" y="332.238">register</text><rect fill="#FFFFFF" height="34.584" rx="12.5" ry="12.5" style="stroke:#000000;stroke-width:1;" width="330.3887" x="375.427" y="379.7576"/><text fill="#000000" font-family="Verdana" font-size="12" lengthAdjust="spacing" textLength="310.3887" x="385.427" y="401.822">Optionally register one complete external definition</text><polygon fill="#FFFFFF" points="461.5696,261.4893,619.6731,261.4893,631.6731,273.4893,619.6731,285.4893,461.5696,285.4893,449.5696,273.4893,461.5696,261.4893" style="stroke:#000000;stroke-width:1;stroke-linejoin:miter;stroke-miterlimit:10;"/><text fill="#000000" font-family="Verdana" font-size="11" lengthAdjust="spacing" textLength="13.6372" x="544.6213" y="296.5483">no</text><text fill="#000000" font-family="Verdana" font-size="11" lengthAdjust="spacing" textLength="158.1035" x="461.5696" y="277.864">Required plugins registered?</text><polygon fill="#FFFFFF" points="540.6213,434.3416,552.6213,446.3416,540.6213,458.3416,528.6213,446.3416,540.6213,434.3416" style="stroke:#000000;stroke-width:1;stroke-linejoin:miter;stroke-miterlimit:10;"/><rect fill="#FFFFFF" height="34.584" rx="12.5" ry="12.5" style="stroke:#000000;stroke-width:1;" width="124.6426" x="478.3" y="478.3416"/><text fill="#000000" font-family="Verdana" font-size="12" lengthAdjust="spacing" textLength="104.6426" x="488.3" y="500.406">Run --list-plugins</text><rect fill="#FFFFFF" height="34.584" rx="12.5" ry="12.5" style="stroke:#000000;stroke-width:1;" width="258.7813" x="411.2307" y="532.9255"/><text fill="#000000" font-family="Verdana" font-size="12" lengthAdjust="spacing" textLength="238.7813" x="421.2307" y="554.99">Enable/disable intended operational set</text><rect fill="#FFFFFF" height="34.584" rx="12.5" ry="12.5" style="stroke:#000000;stroke-width:1;" width="152.1641" x="464.5393" y="587.5095"/><text fill="#000000" font-family="Verdana" font-size="12" lengthAdjust="spacing" textLength="23.5313" x="474.5393" y="609.574">Run</text><text fill="#000000" font-family="Verdana" font-size="12" lengthAdjust="spacing" text-decoration="line-through" textLength="54.7383" x="502.2893" y="609.574">plugin all</text><text fill="#000000" font-family="Verdana" font-size="12" lengthAdjust="spacing" textLength="45.457" x="561.2463" y="609.574">dry-run</text><polygon fill="#FFFFFF" points="476.3938,642.0935,604.8489,642.0935,616.8489,654.0935,604.8489,666.0935,476.3938,666.0935,464.3938,654.0935,476.3938,642.0935" style="stroke:#000000;stroke-width:1;stroke-linejoin:miter;stroke-miterlimit:10;"/><text fill="#000000" font-family="Verdana" font-size="11" lengthAdjust="spacing" textLength="128.4551" x="476.3938" y="658.4683">Acceptance successful?</text><text fill="#000000" font-family="Verdana" font-size="11" lengthAdjust="spacing" textLength="18.7935" x="445.6003" y="651.7839">yes</text><text fill="#000000" font-family="Verdana" font-size="11" lengthAdjust="spacing" textLength="13.6372" x="616.8489" y="651.7839">no</text><rect fill="#FFFFFF" height="34.584" rx="12.5" ry="12.5" style="stroke:#000000;stroke-width:1;" width="284.2695" x="155.812" y="676.0935"/><text fill="#000000" font-family="Verdana" font-size="12" lengthAdjust="spacing" textLength="264.2695" x="165.812" y="698.158">Run one controlled write per enabled plugin</text><rect fill="#FFFFFF" height="34.584" rx="12.5" ry="12.5" style="stroke:#000000;stroke-width:1;" width="349.2852" x="123.3042" y="730.6775"/><text fill="#000000" font-family="Verdana" font-size="12" lengthAdjust="spacing" textLength="329.2852" x="133.3042" y="752.7419">Verify logs, audit, registry, business data and archives</text><polygon fill="#FFFFFF" points="226.5112,785.2615,369.3823,785.2615,381.3823,797.2615,369.3823,809.2615,226.5112,809.2615,214.5112,797.2615,226.5112,785.2615" style="stroke:#000000;stroke-width:1;stroke-linejoin:miter;stroke-miterlimit:10;"/><text fill="#000000" font-family="Verdana" font-size="11" lengthAdjust="spacing" textLength="142.8711" x="226.5112" y="801.6362">Warnings or mismatches?</text><text fill="#000000" font-family="Verdana" font-size="11" lengthAdjust="spacing" textLength="18.7935" x="195.7178" y="794.9519">yes</text><text fill="#000000" font-family="Verdana" font-size="11" lengthAdjust="spacing" textLength="13.6372" x="381.3823" y="794.9519">no</text><rect fill="#FFFFFF" height="34.584" rx="12.5" ry="12.5" style="stroke:#000000;stroke-width:1;" width="211.4609" x="49.0303" y="819.2615"/><text fill="#000000" font-family="Verdana" font-size="12" lengthAdjust="spacing" textLength="191.4609" x="59.0303" y="841.3259">Stop writes and retain evidence</text><rect fill="#FFFFFF" height="34.584" rx="12.5" ry="12.5" style="stroke:#000000;stroke-width:1;" width="287.5215" x="11" y="873.8455"/><text fill="#000000" font-family="Verdana" font-size="12" lengthAdjust="spacing" textLength="267.5215" x="21" y="895.9099">Reconcile transactions, ledgers and archives</text><rect fill="#FFFFFF" height="34.584" rx="12.5" ry="12.5" style="stroke:#000000;stroke-width:1;" width="245.2227" x="318.5215" y="819.2615"/><text fill="#000000" font-family="Verdana" font-size="12" lengthAdjust="spacing" textLength="225.2227" x="328.5215" y="841.3259">Permit routine operation and monitor</text><polygon fill="#FFFFFF" points="297.9468,914.4294,309.9468,926.4294,297.9468,938.4294,285.9468,926.4294,297.9468,914.4294" style="stroke:#000000;stroke-width:1;stroke-linejoin:miter;stroke-miterlimit:10;"/><rect fill="#FFFFFF" height="34.584" rx="12.5" ry="12.5" style="stroke:#000000;stroke-width:1;" width="379.1035" x="593.7441" y="676.0935"/><text fill="#000000" font-family="Verdana" font-size="12" lengthAdjust="spacing" textLength="359.1035" x="603.7441" y="698.158">Diagnose registry, configuration, source and parser failures</text><polygon fill="#FFFFFF" points="540.6213,944.4294,552.6213,956.4294,540.6213,968.4294,528.6213,956.4294,540.6213,944.4294" style="stroke:#000000;stroke-width:1;stroke-linejoin:miter;stroke-miterlimit:10;"/><ellipse cx="540.6213" cy="999.4294" fill="none" rx="11" ry="11" style="stroke:#000000;stroke-width:1;"/><ellipse cx="540.6213" cy="999.4294" fill="#FFFFFF" rx="6" ry="6" style="stroke:#000000;stroke-width:1;"/><line style="stroke:#000000;stroke-width:1;" x1="540.6213" x2="540.6213" y1="77.7373" y2="97.7373"/><polygon fill="#000000" points="536.6213,87.7373,540.6213,97.7373,544.6213,87.7373,540.6213,91.7373" style="stroke:#000000;stroke-width:1;stroke-linejoin:miter;stroke-miterlimit:10;"/><line style="stroke:#000000;stroke-width:1;" x1="540.6213" x2="540.6213" y1="132.3213" y2="152.3213"/><polygon fill="#000000" points="536.6213,142.3213,540.6213,152.3213,544.6213,142.3213,540.6213,146.3213" style="stroke:#000000;stroke-width:1;stroke-linejoin:miter;stroke-miterlimit:10;"/><line style="stroke:#000000;stroke-width:1;" x1="540.6213" x2="540.6213" y1="186.9053" y2="206.9053"/><polygon fill="#000000" points="536.6213,196.9053,540.6213,206.9053,544.6213,196.9053,540.6213,200.9053" style="stroke:#000000;stroke-width:1;stroke-linejoin:miter;stroke-miterlimit:10;"/><line style="stroke:#000000;stroke-width:1;" x1="540.6213" x2="540.6213" y1="344.7576" y2="379.7576"/><polygon fill="#000000" points="536.6213,369.7576,540.6213,379.7576,544.6213,369.7576,540.6213,373.7576" style="stroke:#000000;stroke-width:1;stroke-linejoin:miter;stroke-miterlimit:10;"/><line style="stroke:#000000;stroke-width:1;" x1="540.6213" x2="540.6213" y1="285.4893" y2="310.1736"/><polygon fill="#000000" points="536.6213,300.1736,540.6213,310.1736,544.6213,300.1736,540.6213,304.1736" style="stroke:#000000;stroke-width:1;stroke-linejoin:miter;stroke-miterlimit:10;"/><line style="stroke:#000000;stroke-width:1;" x1="631.6731" x2="715.8157" y1="273.4893" y2="273.4893"/><polygon fill="#000000" points="711.8157,352.2576,715.8157,362.2576,719.8157,352.2576,715.8157,356.2576" style="stroke:#000000;stroke-width:1;stroke-linejoin:miter;stroke-miterlimit:10;"/><line style="stroke:#000000;stroke-width:1;" x1="715.8157" x2="715.8157" y1="273.4893" y2="446.3416"/><line style="stroke:#000000;stroke-width:1;" x1="715.8157" x2="552.6213" y1="446.3416" y2="446.3416"/><polygon fill="#000000" points="562.6213,442.3416,552.6213,446.3416,562.6213,450.3416,558.6213,446.3416" style="stroke:#000000;stroke-width:1;stroke-linejoin:miter;stroke-miterlimit:10;"/><line style="stroke:#000000;stroke-width:1;" x1="540.6213" x2="540.6213" y1="414.3416" y2="434.3416"/><polygon fill="#000000" points="536.6213,424.3416,540.6213,434.3416,544.6213,424.3416,540.6213,428.3416" style="stroke:#000000;stroke-width:1;stroke-linejoin:miter;stroke-miterlimit:10;"/><line style="stroke:#000000;stroke-width:1;" x1="540.6213" x2="540.6213" y1="241.4893" y2="261.4893"/><polygon fill="#000000" points="536.6213,251.4893,540.6213,261.4893,544.6213,251.4893,540.6213,255.4893" style="stroke:#000000;stroke-width:1;stroke-linejoin:miter;stroke-miterlimit:10;"/><line style="stroke:#000000;stroke-width:1;" x1="540.6213" x2="540.6213" y1="458.3416" y2="478.3416"/><polygon fill="#000000" points="536.6213,468.3416,540.6213,478.3416,544.6213,468.3416,540.6213,472.3416" style="stroke:#000000;stroke-width:1;stroke-linejoin:miter;stroke-miterlimit:10;"/><line style="stroke:#000000;stroke-width:1;" x1="540.6213" x2="540.6213" y1="512.9255" y2="532.9255"/><polygon fill="#000000" points="536.6213,522.9255,540.6213,532.9255,544.6213,522.9255,540.6213,526.9255" style="stroke:#000000;stroke-width:1;stroke-linejoin:miter;stroke-miterlimit:10;"/><line style="stroke:#000000;stroke-width:1;" x1="540.6213" x2="540.6213" y1="567.5095" y2="587.5095"/><polygon fill="#000000" points="536.6213,577.5095,540.6213,587.5095,544.6213,577.5095,540.6213,581.5095" style="stroke:#000000;stroke-width:1;stroke-linejoin:miter;stroke-miterlimit:10;"/><line style="stroke:#000000;stroke-width:1;" x1="297.9468" x2="297.9468" y1="710.6775" y2="730.6775"/><polygon fill="#000000" points="293.9468,720.6775,297.9468,730.6775,301.9468,720.6775,297.9468,724.6775" style="stroke:#000000;stroke-width:1;stroke-linejoin:miter;stroke-miterlimit:10;"/><line style="stroke:#000000;stroke-width:1;" x1="154.7607" x2="154.7607" y1="853.8455" y2="873.8455"/><polygon fill="#000000" points="150.7607,863.8455,154.7607,873.8455,158.7607,863.8455,154.7607,867.8455" style="stroke:#000000;stroke-width:1;stroke-linejoin:miter;stroke-miterlimit:10;"/><line style="stroke:#000000;stroke-width:1;" x1="214.5112" x2="154.7607" y1="797.2615" y2="797.2615"/><line style="stroke:#000000;stroke-width:1;" x1="154.7607" x2="154.7607" y1="797.2615" y2="819.2615"/><polygon fill="#000000" points="150.7607,809.2615,154.7607,819.2615,158.7607,809.2615,154.7607,813.2615" style="stroke:#000000;stroke-width:1;stroke-linejoin:miter;stroke-miterlimit:10;"/><line style="stroke:#000000;stroke-width:1;" x1="381.3823" x2="441.1328" y1="797.2615" y2="797.2615"/><line style="stroke:#000000;stroke-width:1;" x1="441.1328" x2="441.1328" y1="797.2615" y2="819.2615"/><polygon fill="#000000" points="437.1328,809.2615,441.1328,819.2615,445.1328,809.2615,441.1328,813.2615" style="stroke:#000000;stroke-width:1;stroke-linejoin:miter;stroke-miterlimit:10;"/><line style="stroke:#000000;stroke-width:1;" x1="154.7607" x2="154.7607" y1="908.4294" y2="926.4294"/><line style="stroke:#000000;stroke-width:1;" x1="154.7607" x2="285.9468" y1="926.4294" y2="926.4294"/><polygon fill="#000000" points="275.9468,922.4294,285.9468,926.4294,275.9468,930.4294,279.9468,926.4294" style="stroke:#000000;stroke-width:1;stroke-linejoin:miter;stroke-miterlimit:10;"/><line style="stroke:#000000;stroke-width:1;" x1="441.1328" x2="441.1328" y1="853.8455" y2="926.4294"/><line style="stroke:#000000;stroke-width:1;" x1="441.1328" x2="309.9468" y1="926.4294" y2="926.4294"/><polygon fill="#000000" points="319.9468,922.4294,309.9468,926.4294,319.9468,930.4294,315.9468,926.4294" style="stroke:#000000;stroke-width:1;stroke-linejoin:miter;stroke-miterlimit:10;"/><line style="stroke:#000000;stroke-width:1;" x1="297.9468" x2="297.9468" y1="765.2615" y2="785.2615"/><polygon fill="#000000" points="293.9468,775.2615,297.9468,785.2615,301.9468,775.2615,297.9468,779.2615" style="stroke:#000000;stroke-width:1;stroke-linejoin:miter;stroke-miterlimit:10;"/><line style="stroke:#000000;stroke-width:1;" x1="464.3938" x2="297.9468" y1="654.0935" y2="654.0935"/><line style="stroke:#000000;stroke-width:1;" x1="297.9468" x2="297.9468" y1="654.0935" y2="676.0935"/><polygon fill="#000000" points="293.9468,666.0935,297.9468,676.0935,301.9468,666.0935,297.9468,670.0935" style="stroke:#000000;stroke-width:1;stroke-linejoin:miter;stroke-miterlimit:10;"/><line style="stroke:#000000;stroke-width:1;" x1="616.8489" x2="783.2959" y1="654.0935" y2="654.0935"/><line style="stroke:#000000;stroke-width:1;" x1="783.2959" x2="783.2959" y1="654.0935" y2="676.0935"/><polygon fill="#000000" points="779.2959,666.0935,783.2959,676.0935,787.2959,666.0935,783.2959,670.0935" style="stroke:#000000;stroke-width:1;stroke-linejoin:miter;stroke-miterlimit:10;"/><line style="stroke:#000000;stroke-width:1;" x1="297.9468" x2="297.9468" y1="938.4294" y2="956.4294"/><line style="stroke:#000000;stroke-width:1;" x1="297.9468" x2="528.6213" y1="956.4294" y2="956.4294"/><polygon fill="#000000" points="518.6213,952.4294,528.6213,956.4294,518.6213,960.4294,522.6213,956.4294" style="stroke:#000000;stroke-width:1;stroke-linejoin:miter;stroke-miterlimit:10;"/><line style="stroke:#000000;stroke-width:1;" x1="783.2959" x2="783.2959" y1="710.6775" y2="956.4294"/><line style="stroke:#000000;stroke-width:1;" x1="783.2959" x2="552.6213" y1="956.4294" y2="956.4294"/><polygon fill="#000000" points="562.6213,952.4294,552.6213,956.4294,562.6213,960.4294,558.6213,956.4294" style="stroke:#000000;stroke-width:1;stroke-linejoin:miter;stroke-miterlimit:10;"/><line style="stroke:#000000;stroke-width:1;" x1="540.6213" x2="540.6213" y1="622.0935" y2="642.0935"/><polygon fill="#000000" points="536.6213,632.0935,540.6213,642.0935,544.6213,632.0935,540.6213,636.0935" style="stroke:#000000;stroke-width:1;stroke-linejoin:miter;stroke-miterlimit:10;"/><line style="stroke:#000000;stroke-width:1;" x1="540.6213" x2="540.6213" y1="968.4294" y2="988.4294"/><polygon fill="#000000" points="536.6213,978.4294,540.6213,988.4294,544.6213,978.4294,540.6213,982.4294" style="stroke:#000000;stroke-width:1;stroke-linejoin:miter;stroke-miterlimit:10;"/><?plantuml-src PPDFRzim3CNl_XJShGNIFzWnEGm3sbk1RYcmdHM9TedAaYTItGpim-_PIj9kErcMoSSV7-aFzimZqnITfCx48jFZnEdEcQDlN5Hoee_NjzUtotLnXdSNwK5wzhEFtAcvOjtsZgUOP_9vd11pW8hcMZpVJCw_k84tzFJrWTIZc2EN0eNiwyZ9LiLTjzr3m7ccGywcLjn4ld10WA3Sak2vcFJYdK6qo2kUzC8pKe4f_Ko51q7cJACC3NH3E2JJ3GKfx2qNOLt53g2gqwwJdYxs_AFYSu07TP2aHo76rQTBWZs9BbA-x8Ys-vhewgh5aOJVBaQyd-9tIyZZr2oAyrc7SkBLcSXWvb-uMZmCt4kIrZwd87rtr8_8EXPHj7UV7Foy2QBBaoGPee6Rtyr3sNRTttYDBPJvgjJKEltiFK_c4cpMYhDgN-Evnvdrt6GZJbPoZ2ZrimZ8KOzuXJbvjNPyj3_c0KQx6iGsvrbiw51L4YfHM3PgyTuL_oolh4loGlNTbIHfKCe5ezFH6RP4_yL2eIVBKqDfGoniM5hYLy6UUDwrg3q3t0kSmXObTNwn26IW7h3F_o5mL3uD6EbVk8nYL78rSB-PlEQD6GFBww3RnDudR-_43IdZugrxeFGorDCwjdzYbPfSKVZPEucrB2HDKD7Z7m00?></g></svg>