<svg xmlns="http://www.w3.org/2000/svg" xmlns:xlink="http://www.w3.org/1999/xlink" contentStyleType="text/css" data-diagram-type="DESCRIPTION" height="183px" preserveAspectRatio="none" style="width:830px;height:183px;background:#FFFFFF;" version="1.1" viewBox="0 0 830 183" width="830px" zoomAndPan="magnify"><?plantuml 1.2026.6?><defs/><g><g class="title" data-source-line="2"><text fill="#000000" font-family="sans-serif" font-size="14" font-weight="700" lengthAdjust="spacing" textLength="159.4961" x="331.752" y="24.5332">Phase 1 Plugin Registry</text></g><!--entity PluginRegistry--><g class="entity" data-qualified-name="PluginRegistry" data-source-line="3" id="ent0001"><rect fill="#F1F1F1" height="47.6094" rx="2.5" ry="2.5" style="stroke:#181818;stroke-width:0.5;" width="130.2617" x="6" y="134.6094"/><rect fill="#F1F1F1" height="10" style="stroke:#181818;stroke-width:0.5;" width="15" x="116.2617" y="139.6094"/><rect fill="#F1F1F1" height="2" style="stroke:#181818;stroke-width:0.5;" width="4" x="114.2617" y="141.6094"/><rect fill="#F1F1F1" height="2" style="stroke:#181818;stroke-width:0.5;" width="4" x="114.2617" y="145.6094"/><text fill="#000000" font-family="sans-serif" font-size="14" lengthAdjust="spacing" textLength="90.2617" x="21" y="169.1426">PluginRegistry</text></g><!--entity ClasspathPluginRegistry--><g class="entity" data-qualified-name="ClasspathPluginRegistry" data-source-line="4" id="ent0002"><rect fill="#F1F1F1" height="47.6094" rx="2.5" ry="2.5" style="stroke:#181818;stroke-width:0.5;" width="192.5166" x="289.5" y="50.6094"/><rect fill="#F1F1F1" height="10" style="stroke:#181818;stroke-width:0.5;" width="15" x="462.0166" y="55.6094"/><rect fill="#F1F1F1" height="2" style="stroke:#181818;stroke-width:0.5;" width="4" x="460.0166" y="57.6094"/><rect fill="#F1F1F1" height="2" style="stroke:#181818;stroke-width:0.5;" width="4" x="460.0166" y="61.6094"/><text fill="#000000" font-family="sans-serif" font-size="14" lengthAdjust="spacing" textLength="152.5166" x="304.5" y="85.1426">ClasspathPluginRegistry</text></g><!--entity PluginDescriptor--><g class="entity" data-qualified-name="PluginDescriptor" data-source-line="5" id="ent0003"><rect fill="#F1F1F1" height="47.6094" rx="2.5" ry="2.5" style="stroke:#181818;stroke-width:0.5;" width="142.71" x="154.5" y="134.6094"/><rect fill="#F1F1F1" height="10" style="stroke:#181818;stroke-width:0.5;" width="15" x="277.21" y="139.6094"/><rect fill="#F1F1F1" height="2" style="stroke:#181818;stroke-width:0.5;" width="4" x="275.21" y="141.6094"/><rect fill="#F1F1F1" height="2" style="stroke:#181818;stroke-width:0.5;" width="4" x="275.21" y="145.6094"/><text fill="#000000" font-family="sans-serif" font-size="14" lengthAdjust="spacing" textLength="102.71" x="169.5" y="169.1426">PluginDescriptor</text></g><!--entity Index--><g class="entity" data-qualified-name="Index" data-source-line="6" id="ent0004"><rect fill="#F1F1F1" height="47.6094" rx="2.5" ry="2.5" style="stroke:#181818;stroke-width:0.5;" width="139.6133" x="316" y="134.6094"/><rect fill="#F1F1F1" height="10" style="stroke:#181818;stroke-width:0.5;" width="15" x="435.6133" y="139.6094"/><rect fill="#F1F1F1" height="2" style="stroke:#181818;stroke-width:0.5;" width="4" x="433.6133" y="141.6094"/><rect fill="#F1F1F1" height="2" style="stroke:#181818;stroke-width:0.5;" width="4" x="433.6133" y="145.6094"/><text fill="#000000" font-family="sans-serif" font-size="14" lengthAdjust="spacing" textLength="99.6133" x="331" y="169.1426">index.properties</text></g><!--entity Ofgem--><g class="entity" data-qualified-name="Ofgem" data-source-line="7" id="ent0005"><rect fill="#F1F1F1" height="47.6094" rx="2.5" ry="2.5" style="stroke:#181818;stroke-width:0.5;" width="145.0547" x="474.5" y="134.6094"/><rect fill="#F1F1F1" height="10" style="stroke:#181818;stroke-width:0.5;" width="15" x="599.5547" y="139.6094"/><rect fill="#F1F1F1" height="2" style="stroke:#181818;stroke-width:0.5;" width="4" x="597.5547" y="141.6094"/><rect fill="#F1F1F1" height="2" style="stroke:#181818;stroke-width:0.5;" width="4" x="597.5547" y="145.6094"/><text fill="#000000" font-family="sans-serif" font-size="14" lengthAdjust="spacing" textLength="105.0547" x="489.5" y="169.1426">ofgem.properties</text></g><!--entity OpenMeteo--><g class="entity" data-qualified-name="OpenMeteo" data-source-line="8" id="ent0006"><rect fill="#F1F1F1" height="47.6094" rx="2.5" ry="2.5" style="stroke:#181818;stroke-width:0.5;" width="176.1992" x="638" y="134.6094"/><rect fill="#F1F1F1" height="10" style="stroke:#181818;stroke-width:0.5;" width="15" x="794.1992" y="139.6094"/><rect fill="#F1F1F1" height="2" style="stroke:#181818;stroke-width:0.5;" width="4" x="792.1992" y="141.6094"/><rect fill="#F1F1F1" height="2" style="stroke:#181818;stroke-width:0.5;" width="4" x="792.1992" y="145.6094"/><text fill="#000000" font-family="sans-serif" font-size="14" lengthAdjust="spacing" textLength="136.1992" x="653" y="169.1426">openmeteo.properties</text></g><g class="link" data-entity-1="ent0002" data-entity-2="ent0001" data-link-type="dependency" id="lnk7"><polygon fill="#181818" points="136.3059,137.0737,146.0624,138.4189,141.1095,135.6861,143.8423,130.7332,136.3059,137.0737" style="stroke:#181818;stroke-width:1;stroke-linejoin:miter;stroke-miterlimit:10;"/><path d="M289.4854,97.8084 C245.2844,108.3409 192.318,121.4771 145,134.6094 C142.148,135.4009 144.0433,134.8386 141.1095,135.6861" fill="none" style="stroke:#181818;stroke-width:1;"/></g><g class="link" data-entity-1="ent0002" data-entity-2="ent0004" data-link-type="dependency" id="lnk8"><polygon fill="#181818" points="386,134.5564,390,125.5564,386,129.5564,382,125.5564,386,134.5564" style="stroke:#181818;stroke-width:1;stroke-linejoin:miter;stroke-miterlimit:10;"/><path d="M386,98.8879 C386,110.0624 386,118.4115 386,129.5564" fill="none" style="stroke:#181818;stroke-width:1;"/></g><g class="link" data-entity-1="ent0002" data-entity-2="ent0005" data-link-type="dependency" id="lnk9"><polygon fill="#181818" points="501.7852,134.5807,495.5809,126.9318,497.3298,132.3115,491.9501,134.0605,501.7852,134.5807" style="stroke:#181818;stroke-width:1;stroke-linejoin:miter;stroke-miterlimit:10;"/><path d="M431.2759,98.6692 C453.3187,109.8959 475.2952,121.0889 497.3298,132.3115" fill="none" style="stroke:#181818;stroke-width:1;"/></g><g class="link" data-entity-1="ent0002" data-entity-2="ent0006" data-link-type="dependency" id="lnk10"><polygon fill="#181818" points="637.7979,136.3371,629.9866,130.3385,632.9373,135.1648,628.111,138.1155,637.7979,136.3371" style="stroke:#181818;stroke-width:1;stroke-linejoin:miter;stroke-miterlimit:10;"/><path d="M481.6138,98.6692 C530.6188,110.488 585.0359,123.6121 632.9373,135.1648" fill="none" style="stroke:#181818;stroke-width:1;"/></g><g class="link" data-entity-1="ent0002" data-entity-2="ent0003" data-link-type="dependency" id="lnk11"><polygon fill="#181818" points="270.9339,134.5807,280.7677,134.0356,275.3836,132.3003,277.119,126.9162,270.9339,134.5807" style="stroke:#181818;stroke-width:1;stroke-linejoin:miter;stroke-miterlimit:10;"/><path d="M341.0053,98.6692 C319.0994,109.8959 297.2814,121.0777 275.3836,132.3003" fill="none" style="stroke:#181818;stroke-width:1;"/></g><?plantuml-src bP0z2i9044RxFSLuW0XUm4OR2p7OXXI3Zfk5_MDd0kRsxfe8OZ1eEUzznMDMCQ5s21Q7q0km8q6FIenOWhf39jX0RNjjF9n96vOqg6O4hxjLpSuYSqJfPcO4U-9BCb52oiZuAztNCOL8IGnn2yXmA50ruQR9VRfJWTb5yhcFmindSIpYUmXKrHP-xtxEfwJ5pPIslFalx-rN3m00?></g></svg>