<svg xmlns="http://www.w3.org/2000/svg" xmlns:xlink="http://www.w3.org/1999/xlink" contentStyleType="text/css" data-diagram-type="DESCRIPTION" height="592px" preserveAspectRatio="none" style="width:829px;height:592px;background:#FFFFFF;" version="1.1" viewBox="0 0 829 592" width="829px" zoomAndPan="magnify"><?plantuml 1.2026.6?><defs/><g><g class="title" data-source-line="2"><text fill="#000000" font-family="sans-serif" font-size="14" font-weight="700" lengthAdjust="spacing" textLength="343.875" x="239.0625" y="24.5332">Packaged Catalogue and Persistent Plugin Registry</text></g><!--entity CLI--><g class="entity" data-qualified-name="CLI" data-source-line="4" id="ent0001"><rect fill="#F1F1F1" height="37.6094" rx="2.5" ry="2.5" style="stroke:#181818;stroke-width:0.5;" width="241.7646" x="270.5" y="50.6094"/><text fill="#000000" font-family="sans-serif" font-size="14" lengthAdjust="spacing" textLength="221.7646" x="280.5" y="75.1426">CommandLineArgumentsProcessor</text></g><!--entity Catalogue--><g class="entity" data-qualified-name="Catalogue" data-source-line="5" id="ent0002"><rect fill="#F1F1F1" height="55.2188" rx="2.5" ry="2.5" style="stroke:#181818;stroke-width:0.5;" width="172.5166" x="51" y="144.6094"/><text fill="#000000" font-family="sans-serif" font-size="14" lengthAdjust="spacing" textLength="152.5166" x="61" y="169.1426">ClasspathPluginRegistry</text><text fill="#000000" font-family="sans-serif" font-size="14" lengthAdjust="spacing" textLength="133.8613" x="61" y="186.752">registration catalogue</text></g><!--entity Packaged--><g class="entity" data-qualified-name="Packaged" data-source-line="6" id="ent0003"><rect fill="#F1F1F1" height="37.6094" rx="2.5" ry="2.5" style="stroke:#181818;stroke-width:0.5;" width="263.2158" x="6" y="264.1094"/><text fill="#000000" font-family="sans-serif" font-size="14" lengthAdjust="spacing" textLength="243.2158" x="16" y="288.6426">index.properties + packaged definitions</text></g><!--entity External--><g class="entity" data-qualified-name="External" data-source-line="7" id="ent0004"><rect fill="#F1F1F1" height="37.6094" rx="2.5" ry="2.5" style="stroke:#181818;stroke-width:0.5;" width="297.8057" x="242.5" y="153.1094"/><text fill="#000000" font-family="sans-serif" font-size="14" lengthAdjust="spacing" textLength="277.8057" x="252.5" y="177.6426">PropertiesFileConfigurationPropertiesSource</text></g><!--entity Registry--><g class="entity" data-qualified-name="Registry" data-source-line="8" id="ent0005"><rect fill="#F1F1F1" height="55.2188" rx="2.5" ry="2.5" style="stroke:#181818;stroke-width:0.5;" width="199.7373" x="291.5" y="255.6094"/><text fill="#000000" font-family="sans-serif" font-size="14" lengthAdjust="spacing" textLength="119.834" x="301.5" y="280.1426">JdbcPluginRegistry</text><text fill="#000000" font-family="sans-serif" font-size="14" lengthAdjust="spacing" textLength="179.7373" x="301.5" y="297.752">authoritative lifecycle registry</text></g><!--entity RegistryTable--><g class="entity" data-qualified-name="RegistryTable" data-source-line="9" id="ent0006"><rect fill="#F1F1F1" height="37.6094" rx="2.5" ry="2.5" style="stroke:#181818;stroke-width:0.5;" width="142.1719" x="157.5" y="366.6094"/><text fill="#000000" font-family="sans-serif" font-size="14" lengthAdjust="spacing" textLength="122.1719" x="167.5" y="391.1426">core.plugin_registry</text></g><!--entity PropertyTable--><g class="entity" data-qualified-name="PropertyTable" data-source-line="10" id="ent0007"><rect fill="#F1F1F1" height="37.6094" rx="2.5" ry="2.5" style="stroke:#181818;stroke-width:0.5;" width="147.6338" x="317.5" y="366.6094"/><text fill="#000000" font-family="sans-serif" font-size="14" lengthAdjust="spacing" textLength="127.6338" x="327.5" y="391.1426">core.plugin_property</text></g><!--entity Selection--><g class="entity" data-qualified-name="Selection" data-source-line="11" id="ent0008"><rect fill="#F1F1F1" height="37.6094" rx="2.5" ry="2.5" style="stroke:#181818;stroke-width:0.5;" width="171.751" x="431.5" y="422.6094"/><text fill="#000000" font-family="sans-serif" font-size="14" lengthAdjust="spacing" textLength="151.751" x="441.5" y="447.1426">PluginSelectionResolver</text></g><!--entity Loader--><g class="entity" data-qualified-name="Loader" data-source-line="12" id="ent0009"><rect fill="#F1F1F1" height="37.6094" rx="2.5" ry="2.5" style="stroke:#181818;stroke-width:0.5;" width="224.6816" x="267" y="478.6094"/><text fill="#000000" font-family="sans-serif" font-size="14" lengthAdjust="spacing" textLength="204.6816" x="277" y="503.1426">PropertiesPluginDefinitionLoader</text></g><!--entity Factory--><g class="entity" data-qualified-name="Factory" data-source-line="13" id="ent0010"><rect fill="#F1F1F1" height="37.6094" rx="2.5" ry="2.5" style="stroke:#181818;stroke-width:0.5;" width="167.8477" x="394.5" y="553.6094"/><text fill="#000000" font-family="sans-serif" font-size="14" lengthAdjust="spacing" textLength="147.8477" x="404.5" y="578.1426">ReflectionPluginFactory</text></g><g class="entity" data-qualified-name="GMN23" data-source-line="28" id="ent0024"><path d="M510,261.6094 L510,279.1094 L491.6953,283.1094 L510,287.1094 L510,304.3125 A0,0 0 0 0 510,304.3125 L812.8042,304.3125 A0,0 0 0 0 812.8042,304.3125 L812.8042,271.6094 L802.8042,261.6094 L510,261.6094 A0,0 0 0 0 510,261.6094" fill="#FEFFDD" style="stroke:#181818;stroke-width:0.5;"/><path d="M802.8042,261.6094 L802.8042,271.6094 L812.8042,271.6094 L802.8042,261.6094" fill="#FEFFDD" style="stroke:#181818;stroke-width:0.5;"/><text fill="#000000" font-family="sans-serif" font-size="13" lengthAdjust="spacing" textLength="281.8042" x="516" y="280.1045">Re-registration preserves current enabled status.</text><text fill="#000000" font-family="sans-serif" font-size="13" lengthAdjust="spacing" textLength="216.0615" x="516" y="296.4561">First registration uses plugin.enabled.</text></g><g class="link" data-entity-1="ent0001" data-entity-2="ent0002" data-link-type="dependency" id="lnk11"><polygon fill="#181818" points="185.5477,144.4508,195.3751,143.8002,189.9727,142.1227,191.6502,136.7203,185.5477,144.4508" style="stroke:#181818;stroke-width:1;stroke-linejoin:miter;stroke-miterlimit:10;"/><path d="M320.3411,88.6605 C302.5445,93.8396 283.6464,99.9188 266.5,106.6094 C238.9748,117.3497 213.8416,129.5646 189.9727,142.1227" fill="none" style="stroke:#181818;stroke-width:1;"/><text fill="#000000" font-family="sans-serif" font-size="13" lengthAdjust="spacing" textLength="117.0381" x="268.5" y="122.1045">register without --file</text></g><g class="link" data-entity-1="ent0002" data-entity-2="ent0003" data-link-type="dependency" id="lnk12"><polygon fill="#181818" points="137.5,263.9055,141.5,254.9055,137.5,258.9055,133.5,254.9055,137.5,263.9055" style="stroke:#181818;stroke-width:1;stroke-linejoin:miter;stroke-miterlimit:10;"/><path d="M137.5,199.7738 C137.5,219.69 137.5,241.3854 137.5,258.9055" fill="none" style="stroke:#181818;stroke-width:1;"/></g><g class="link" data-entity-1="ent0001" data-entity-2="ent0004" data-link-type="dependency" id="lnk13"><polygon fill="#181818" points="391.5,152.793,395.5,143.793,391.5,147.793,387.5,143.793,391.5,152.793" style="stroke:#181818;stroke-width:1;stroke-linejoin:miter;stroke-miterlimit:10;"/><path d="M391.5,89.0426 C391.5,107.1761 391.5,129.7 391.5,147.793" fill="none" style="stroke:#181818;stroke-width:1;"/><text fill="#000000" font-family="sans-serif" font-size="13" lengthAdjust="spacing" textLength="140.8989" x="393.5" y="122.1045">register one named --file</text></g><g class="link" data-entity-1="ent0002" data-entity-2="ent0005" data-link-type="dependency" id="lnk14"><polygon fill="#181818" points="313.242,255.5838,306.1744,248.7246,308.549,253.8589,303.4146,256.2335,313.242,255.5838" style="stroke:#181818;stroke-width:1;stroke-linejoin:miter;stroke-miterlimit:10;"/><path d="M187.7975,199.7664 C211.6494,211.966 240.7263,226.2087 267.5,237.6094 C282.1254,243.8371 293.2558,248.2383 308.549,253.8589" fill="none" style="stroke:#181818;stroke-width:1;"/><text fill="#000000" font-family="sans-serif" font-size="13" lengthAdjust="spacing" textLength="116.3398" x="269.5" y="233.1045">selected registration</text></g><g class="link" data-entity-1="ent0004" data-entity-2="ent0005" data-link-type="dependency" id="lnk15"><polygon fill="#181818" points="391.5,255.3403,395.5,246.3403,391.5,250.3403,387.5,246.3403,391.5,255.3403" style="stroke:#181818;stroke-width:1;stroke-linejoin:miter;stroke-miterlimit:10;"/><path d="M391.5,191.5997 C391.5,209.0925 391.5,230.5437 391.5,250.3403" fill="none" style="stroke:#181818;stroke-width:1;"/><text fill="#000000" font-family="sans-serif" font-size="13" lengthAdjust="spacing" textLength="116.3398" x="393.5" y="233.1045">selected registration</text></g><g class="link" data-entity-1="ent0005" data-entity-2="ent0006" data-link-type="dependency" id="lnk16"><polygon fill="#181818" points="257.7845,366.5536,267.5447,365.235,262.0405,363.9295,263.3461,358.4253,257.7845,366.5536" style="stroke:#181818;stroke-width:1;stroke-linejoin:miter;stroke-miterlimit:10;"/><path d="M348.2469,310.7777 C319.6693,328.3976 287.2338,348.3962 262.0405,363.9295" fill="none" style="stroke:#181818;stroke-width:1;"/></g><g class="link" data-entity-1="ent0005" data-entity-2="ent0007" data-link-type="dependency" id="lnk17"><polygon fill="#181818" points="391.5,366.3996,395.5,357.3996,391.5,361.3996,387.5,357.3996,391.5,366.3996" style="stroke:#181818;stroke-width:1;stroke-linejoin:miter;stroke-miterlimit:10;"/><path d="M391.5,310.7777 C391.5,328.3395 391.5,345.871 391.5,361.3996" fill="none" style="stroke:#181818;stroke-width:1;"/></g><g class="link" data-entity-1="ent0001" data-entity-2="ent0005" data-link-type="dependency" id="lnk18"><polygon fill="#181818" points="482.1411,255.6014,491.9898,255.6475,486.7196,253.5921,488.7749,248.3219,482.1411,255.6014" style="stroke:#181818;stroke-width:1;stroke-linejoin:miter;stroke-miterlimit:10;"/><path d="M497.849,88.6342 C516.5806,93.6179 532.3756,99.6171 539.5,106.6094 C551.9638,118.8421 547.2593,127.2898 549.5,144.6094 C552.6364,168.8518 558.2243,176.7748 549.5,199.6094 C541.4118,220.7792 534.2966,224.9497 515.5,237.6094 C505.2559,244.5089 498.3947,248.4684 486.7196,253.5921" fill="none" style="stroke:#181818;stroke-width:1;"/><text fill="#000000" font-family="sans-serif" font-size="13" lengthAdjust="spacing" textLength="187.167" x="556.5" y="177.6045">list/enable/disable/unregister/run</text></g><g class="link" data-entity-1="ent0005" data-entity-2="ent0008" data-link-type="dependency" id="lnk19"><polygon fill="#181818" points="508.6519,422.4381,508.1099,412.6042,506.3728,417.9877,500.9893,416.2507,508.6519,422.4381" style="stroke:#181818;stroke-width:1;stroke-linejoin:miter;stroke-miterlimit:10;"/><path d="M421.8708,310.6493 C438.5059,326.0431 458.857,346.3452 474.5,366.6094 C488.2103,384.3698 498.428,402.4739 506.3728,417.9877" fill="none" style="stroke:#181818;stroke-width:1;"/><text fill="#000000" font-family="sans-serif" font-size="13" lengthAdjust="spacing" textLength="113.458" x="460.5" y="344.1045">enabled descriptors</text></g><g class="link" data-entity-1="ent0007" data-entity-2="ent0009" data-link-type="dependency" id="lnk20"><polygon fill="#181818" points="381.4845,478.4181,386.4369,469.905,382.0267,473.4476,378.4841,469.0374,381.4845,478.4181" style="stroke:#181818;stroke-width:1;stroke-linejoin:miter;stroke-miterlimit:10;"/><path d="M389.5184,404.7736 C387.295,425.1549 384.2513,453.0554 382.0267,473.4476" fill="none" style="stroke:#181818;stroke-width:1;"/></g><g class="link" data-entity-1="ent0008" data-entity-2="ent0010" data-link-type="dependency" id="lnk21"><polygon fill="#181818" points="486.5526,553.532,493.7588,546.8185,488.5115,548.9317,486.3983,543.6843,486.5526,553.532" style="stroke:#181818;stroke-width:1;stroke-linejoin:miter;stroke-miterlimit:10;"/><path d="M514.1461,460.7613 C511.1605,475.8712 506.3636,497.864 500.5,516.6094 C496.5701,529.1728 493.029,538.3225 488.5115,548.9317" fill="none" style="stroke:#181818;stroke-width:1;"/></g><g class="link" data-entity-1="ent0009" data-entity-2="ent0010" data-link-type="dependency" id="lnk22"><polygon fill="#181818" points="453.9665,553.519,449.0967,544.9583,449.9422,550.5516,444.3489,551.3971,453.9665,553.519" style="stroke:#181818;stroke-width:1;stroke-linejoin:miter;stroke-miterlimit:10;"/><path d="M403.9719,516.6543 C419.2029,527.8852 434.6997,539.3122 449.9422,550.5516" fill="none" style="stroke:#181818;stroke-width:1;"/></g><?plantuml-src ZLInZjim3Dtr5UfS9Dax53Ya3T0YGv3SvXO5JwOTuMJ98ANqylUbBSkn3pTqYaAzzqW-KlxK4xGTQ0VtaABc3YDuKD56X_e4vXLQhFKU8hZG9jJWQtr2OiiHVTGdbrhhzHbR2T1TyQlrFH1qseIk3rumbtWNAK8Zmgr3LUr3rudCqNfyeZPrWk4J1OFCWNvhOBq__X2O0-OUuZNdA2b-USedY3PuRKfbcLZ-gShw6j-sFOKUALfa_LdtfPqQ6-ljmEUHLlfKrMd67wp3VV2DRLDEzRYwX4Gc9_p-5f4yE5Nzh5_C-qeXnMiW6uL_G-riW-PkHZCoOfIOlQjC8DpseyQV3o7Fy38OkCHD3MRSL6B1vN8kwCHxQU2C7DmDiyLpTDbp9doRtJa6g2TyFghgZCr4pE03c1YcCgUpKZ8_lTbyNQpDbwbd9FtNYYcoQfjD8nQh1sPWp9Ce4iNWfOAibVRGoI0_r2Xk2ON7BWMut1arQ_uNUWOiqTdXrTNQ_5B_Gjx9OOT-kDxLbiVVv4jNEqhlSiqZ4cwc3PlBXcmlDhDQ9HmPqv0Un25Off8lLo4VeYoZRQzHX-QnY6VShDvOJyX8Dtb39X4DpxwKmxBQYRVgO8dZoZQTMF1vIRSJVAjGlXv3qdy0?></g></svg>