<?xml version="1.0" encoding="UTF-8" standalone="no"?>
<!DOCTYPE svg PUBLIC "-//W3C//DTD SVG 1.1//EN"
 "http://www.w3.org/Graphics/SVG/1.1/DTD/svg11.dtd">
<!-- Generated by graphviz version 2.42.4 (0)
 -->
<!-- Title: G Pages: 1 -->
<svg width="2206pt" height="292pt"
 viewBox="0.00 0.00 2206.20 292.20" xmlns="http://www.w3.org/2000/svg" xmlns:xlink="http://www.w3.org/1999/xlink">
<g id="graph0" class="graph" transform="scale(1 1) rotate(0) translate(21.6 270.6)">
<title>G</title>
<polygon fill="white" stroke="transparent" points="-21.6,21.6 -21.6,-270.6 2184.6,-270.6 2184.6,21.6 -21.6,21.6"/>
<text text-anchor="middle" x="1081.5" y="-229" font-family="Arial" font-size="20.00">OpenData plugin development lifecycle</text>
<!-- define -->
<g id="node1" class="node">
<title>define</title>
<path fill="#f7f7f7" stroke="#444444" d="M144,-127C144,-127 12,-127 12,-127 6,-127 0,-121 0,-115 0,-115 0,-103 0,-103 0,-97 6,-91 12,-91 12,-91 144,-91 144,-91 150,-91 156,-97 156,-103 156,-103 156,-115 156,-115 156,-121 150,-127 144,-127"/>
<text text-anchor="middle" x="78" y="-112.2" font-family="Arial" font-size="11.00">Define source, licence,</text>
<text text-anchor="middle" x="78" y="-100.2" font-family="Arial" font-size="11.00">business key and ownership</text>
</g>
<!-- decision -->
<g id="node2" class="node">
<title>decision</title>
<path fill="#f7f7f7" stroke="#444444" d="M317,-127C317,-127 209,-127 209,-127 203,-127 197,-121 197,-115 197,-115 197,-103 197,-103 197,-97 203,-91 209,-91 209,-91 317,-91 317,-91 323,-91 329,-97 329,-103 329,-103 329,-115 329,-115 329,-121 323,-127 317,-127"/>
<text text-anchor="middle" x="263" y="-112.2" font-family="Arial" font-size="11.00">ADR and source notice</text>
<text text-anchor="middle" x="263" y="-100.2" font-family="Arial" font-size="11.00">when required</text>
</g>
<!-- define&#45;&gt;decision -->
<g id="edge1" class="edge">
<title>define&#45;&gt;decision</title>
<path fill="none" stroke="#555555" d="M156.08,-109C167.22,-109 178.65,-109 189.69,-109"/>
<polygon fill="#555555" stroke="#555555" points="189.88,-111.45 196.88,-109 189.88,-106.55 189.88,-111.45"/>
</g>
<!-- copy -->
<g id="node3" class="node">
<title>copy</title>
<path fill="#f7f7f7" stroke="#444444" d="M477,-127C477,-127 382,-127 382,-127 376,-127 370,-121 370,-115 370,-115 370,-103 370,-103 370,-97 376,-91 382,-91 382,-91 477,-91 477,-91 483,-91 489,-97 489,-103 489,-103 489,-115 489,-115 489,-121 483,-127 477,-127"/>
<text text-anchor="middle" x="429.5" y="-112.2" font-family="Arial" font-size="11.00">Copy maintained</text>
<text text-anchor="middle" x="429.5" y="-100.2" font-family="Arial" font-size="11.00">Java plugin template</text>
</g>
<!-- decision&#45;&gt;copy -->
<g id="edge2" class="edge">
<title>decision&#45;&gt;copy</title>
<path fill="none" stroke="#555555" d="M329.01,-109C340.07,-109 351.55,-109 362.62,-109"/>
<polygon fill="#555555" stroke="#555555" points="362.83,-111.45 369.83,-109 362.83,-106.55 362.83,-111.45"/>
</g>
<!-- lifecycle -->
<g id="node4" class="node">
<title>lifecycle</title>
<path fill="#f7f7f7" stroke="#444444" d="M683,-127C683,-127 542,-127 542,-127 536,-127 530,-121 530,-115 530,-115 530,-103 530,-103 530,-97 536,-91 542,-91 542,-91 683,-91 683,-91 689,-91 695,-97 695,-103 695,-103 695,-115 695,-115 695,-121 689,-127 683,-127"/>
<text text-anchor="middle" x="612.5" y="-112.2" font-family="Arial" font-size="11.00">Implement typed configuration</text>
<text text-anchor="middle" x="612.5" y="-100.2" font-family="Arial" font-size="11.00">and five&#45;stage lifecycle</text>
</g>
<!-- copy&#45;&gt;lifecycle -->
<g id="edge3" class="edge">
<title>copy&#45;&gt;lifecycle</title>
<path fill="none" stroke="#555555" d="M489.27,-109C499.95,-109 511.31,-109 522.64,-109"/>
<polygon fill="#555555" stroke="#555555" points="522.68,-111.45 529.68,-109 522.68,-106.55 522.68,-111.45"/>
</g>
<!-- props -->
<g id="node5" class="node">
<title>props</title>
<path fill="#f7f7f7" stroke="#444444" d="M861,-219C861,-219 765,-219 765,-219 759,-219 753,-213 753,-207 753,-207 753,-195 753,-195 753,-189 759,-183 765,-183 765,-183 861,-183 861,-183 867,-183 873,-189 873,-195 873,-195 873,-207 873,-207 873,-213 867,-219 861,-219"/>
<text text-anchor="middle" x="813" y="-204.2" font-family="Arial" font-size="11.00">Classpath properties</text>
<text text-anchor="middle" x="813" y="-192.2" font-family="Arial" font-size="11.00">and registry entry</text>
</g>
<!-- lifecycle&#45;&gt;props -->
<g id="edge4" class="edge">
<title>lifecycle&#45;&gt;props</title>
<path fill="none" stroke="#555555" d="M647.15,-127.09C671.54,-139.94 705.45,-157.28 736,-171 742.93,-174.12 750.3,-177.24 757.6,-180.24"/>
<polygon fill="#555555" stroke="#555555" points="756.88,-182.59 764.28,-182.95 758.72,-178.05 756.88,-182.59"/>
</g>
<!-- sql -->
<g id="node6" class="node">
<title>sql</title>
<path fill="#f7f7f7" stroke="#444444" d="M872.5,-158C872.5,-158 753.5,-158 753.5,-158 747.5,-158 741.5,-152 741.5,-146 741.5,-146 741.5,-134 741.5,-134 741.5,-128 747.5,-122 753.5,-122 753.5,-122 872.5,-122 872.5,-122 878.5,-122 884.5,-128 884.5,-134 884.5,-134 884.5,-146 884.5,-146 884.5,-152 878.5,-158 872.5,-158"/>
<text text-anchor="middle" x="813" y="-143.2" font-family="Arial" font-size="11.00">Ordered SQL, constraints</text>
<text text-anchor="middle" x="813" y="-131.2" font-family="Arial" font-size="11.00">and least&#45;privilege grants</text>
</g>
<!-- lifecycle&#45;&gt;sql -->
<g id="edge5" class="edge">
<title>lifecycle&#45;&gt;sql</title>
<path fill="none" stroke="#555555" d="M695.1,-121.74C708,-123.76 721.31,-125.84 734.13,-127.84"/>
<polygon fill="#555555" stroke="#555555" points="733.89,-130.28 741.19,-128.94 734.65,-125.44 733.89,-130.28"/>
</g>
<!-- tests -->
<g id="node7" class="node">
<title>tests</title>
<path fill="#f7f7f7" stroke="#444444" d="M861,-97C861,-97 765,-97 765,-97 759,-97 753,-91 753,-85 753,-85 753,-73 753,-73 753,-67 759,-61 765,-61 765,-61 861,-61 861,-61 867,-61 873,-67 873,-73 873,-73 873,-85 873,-85 873,-91 867,-97 861,-97"/>
<text text-anchor="middle" x="813" y="-82.2" font-family="Arial" font-size="11.00">Unit, component and</text>
<text text-anchor="middle" x="813" y="-70.2" font-family="Arial" font-size="11.00">SQL Server tests</text>
</g>
<!-- lifecycle&#45;&gt;tests -->
<g id="edge6" class="edge">
<title>lifecycle&#45;&gt;tests</title>
<path fill="none" stroke="#555555" d="M695.1,-96.67C711.88,-94.13 729.36,-91.49 745.53,-89.05"/>
<polygon fill="#555555" stroke="#555555" points="746.31,-91.41 752.86,-87.94 745.58,-86.56 746.31,-91.41"/>
</g>
<!-- docs -->
<g id="node8" class="node">
<title>docs</title>
<path fill="#f7f7f7" stroke="#444444" d="M878,-36C878,-36 748,-36 748,-36 742,-36 736,-30 736,-24 736,-24 736,-12 736,-12 736,-6 742,0 748,0 748,0 878,0 878,0 884,0 890,-6 890,-12 890,-12 890,-24 890,-24 890,-30 884,-36 878,-36"/>
<text text-anchor="middle" x="813" y="-21.2" font-family="Arial" font-size="11.00">User, operator, reference</text>
<text text-anchor="middle" x="813" y="-9.2" font-family="Arial" font-size="11.00">and diagram documentation</text>
</g>
<!-- lifecycle&#45;&gt;docs -->
<g id="edge7" class="edge">
<title>lifecycle&#45;&gt;docs</title>
<path fill="none" stroke="#555555" d="M648.84,-90.89C673.15,-78.64 706.29,-62.32 736,-49 743.62,-45.58 751.73,-42.11 759.71,-38.78"/>
<polygon fill="#555555" stroke="#555555" points="760.84,-40.96 766.37,-36.02 758.97,-36.44 760.84,-40.96"/>
</g>
<!-- register -->
<g id="node9" class="node">
<title>register</title>
<path fill="#f7f7f7" stroke="#444444" d="M1031,-127C1031,-127 943,-127 943,-127 937,-127 931,-121 931,-115 931,-115 931,-103 931,-103 931,-97 937,-91 943,-91 943,-91 1031,-91 1031,-91 1037,-91 1043,-97 1043,-103 1043,-103 1043,-115 1043,-115 1043,-121 1037,-127 1031,-127"/>
<text text-anchor="middle" x="987" y="-112.2" font-family="Arial" font-size="11.00">Register definitions</text>
<text text-anchor="middle" x="987" y="-100.2" font-family="Arial" font-size="11.00">into SQL Server</text>
</g>
<!-- props&#45;&gt;register -->
<g id="edge8" class="edge">
<title>props&#45;&gt;register</title>
<path fill="none" stroke="#555555" d="M864.09,-182.86C872.86,-179.22 881.8,-175.21 890,-171 912.51,-159.43 936.43,-143.99 954.76,-131.42"/>
<polygon fill="#555555" stroke="#555555" points="956.39,-133.27 960.75,-127.27 953.6,-129.24 956.39,-133.27"/>
</g>
<!-- sql&#45;&gt;register -->
<g id="edge9" class="edge">
<title>sql&#45;&gt;register</title>
<path fill="none" stroke="#555555" d="M884.95,-127.21C897.91,-124.88 911.34,-122.46 924.02,-120.17"/>
<polygon fill="#555555" stroke="#555555" points="924.52,-122.57 930.98,-118.92 923.65,-117.75 924.52,-122.57"/>
</g>
<!-- tests&#45;&gt;register -->
<g id="edge10" class="edge">
<title>tests&#45;&gt;register</title>
<path fill="none" stroke="#555555" d="M873.19,-89.32C889.52,-92.17 907.28,-95.27 923.77,-98.15"/>
<polygon fill="#555555" stroke="#555555" points="923.43,-100.57 930.75,-99.36 924.28,-95.75 923.43,-100.57"/>
</g>
<!-- docs&#45;&gt;register -->
<g id="edge11" class="edge">
<title>docs&#45;&gt;register</title>
<path fill="none" stroke="#555555" d="M862,-36.12C871.41,-40.08 881.12,-44.46 890,-49 912.01,-60.26 935.56,-74.94 953.83,-86.96"/>
<polygon fill="#555555" stroke="#555555" points="952.63,-89.1 959.82,-90.93 955.34,-85.02 952.63,-89.1"/>
</g>
<!-- dry -->
<g id="node10" class="node">
<title>dry</title>
<path fill="#f7f7f7" stroke="#444444" d="M1219,-127C1219,-127 1096,-127 1096,-127 1090,-127 1084,-121 1084,-115 1084,-115 1084,-103 1084,-103 1084,-97 1090,-91 1096,-91 1096,-91 1219,-91 1219,-91 1225,-91 1231,-97 1231,-103 1231,-103 1231,-115 1231,-115 1231,-121 1225,-127 1219,-127"/>
<text text-anchor="middle" x="1157.5" y="-112.2" font-family="Arial" font-size="11.00">Dry&#45;run verification</text>
<text text-anchor="middle" x="1157.5" y="-100.2" font-family="Arial" font-size="11.00">(no persistent side effects)</text>
</g>
<!-- register&#45;&gt;dry -->
<g id="edge12" class="edge">
<title>register&#45;&gt;dry</title>
<path fill="none" stroke="#555555" d="M1043.17,-109C1053.9,-109 1065.35,-109 1076.69,-109"/>
<polygon fill="#555555" stroke="#555555" points="1076.73,-111.45 1083.73,-109 1076.73,-106.55 1076.73,-111.45"/>
</g>
<!-- write -->
<g id="node11" class="node">
<title>write</title>
<path fill="#f7f7f7" stroke="#444444" d="M1410,-127C1410,-127 1284,-127 1284,-127 1278,-127 1272,-121 1272,-115 1272,-115 1272,-103 1272,-103 1272,-97 1278,-91 1284,-91 1284,-91 1410,-91 1410,-91 1416,-91 1422,-97 1422,-103 1422,-103 1422,-115 1422,-115 1422,-121 1416,-127 1410,-127"/>
<text text-anchor="middle" x="1347" y="-112.2" font-family="Arial" font-size="11.00">Write, repeat&#45;load, rollback</text>
<text text-anchor="middle" x="1347" y="-100.2" font-family="Arial" font-size="11.00">and recovery verification</text>
</g>
<!-- dry&#45;&gt;write -->
<g id="edge13" class="edge">
<title>dry&#45;&gt;write</title>
<path fill="none" stroke="#555555" d="M1231.26,-109C1242.15,-109 1253.45,-109 1264.51,-109"/>
<polygon fill="#555555" stroke="#555555" points="1264.73,-111.45 1271.73,-109 1264.73,-106.55 1264.73,-111.45"/>
</g>
<!-- verify -->
<g id="node12" class="node">
<title>verify</title>
<path fill="#f7f7f7" stroke="#444444" d="M1581,-127C1581,-127 1475,-127 1475,-127 1469,-127 1463,-121 1463,-115 1463,-115 1463,-103 1463,-103 1463,-97 1469,-91 1475,-91 1475,-91 1581,-91 1581,-91 1587,-91 1593,-97 1593,-103 1593,-103 1593,-115 1593,-115 1593,-121 1587,-127 1581,-127"/>
<text text-anchor="middle" x="1528" y="-112.2" font-family="Arial" font-size="11.00">mvn clean verify</text>
<text text-anchor="middle" x="1528" y="-100.2" font-family="Arial" font-size="11.00">and strict report review</text>
</g>
<!-- write&#45;&gt;verify -->
<g id="edge14" class="edge">
<title>write&#45;&gt;verify</title>
<path fill="none" stroke="#555555" d="M1422.1,-109C1433.22,-109 1444.67,-109 1455.74,-109"/>
<polygon fill="#555555" stroke="#555555" points="1455.95,-111.45 1462.95,-109 1455.95,-106.55 1455.95,-111.45"/>
</g>
<!-- doccheck -->
<g id="node13" class="node">
<title>doccheck</title>
<path fill="#f7f7f7" stroke="#444444" d="M1760,-172C1760,-172 1646,-172 1646,-172 1640,-172 1634,-166 1634,-160 1634,-160 1634,-148 1634,-148 1634,-142 1640,-136 1646,-136 1646,-136 1760,-136 1760,-136 1766,-136 1772,-142 1772,-148 1772,-148 1772,-160 1772,-160 1772,-166 1766,-172 1760,-172"/>
<text text-anchor="middle" x="1703" y="-157.2" font-family="Arial" font-size="11.00">Validate links, manifests,</text>
<text text-anchor="middle" x="1703" y="-145.2" font-family="Arial" font-size="11.00">diagrams and manuals</text>
</g>
<!-- verify&#45;&gt;doccheck -->
<g id="edge15" class="edge">
<title>verify&#45;&gt;doccheck</title>
<path fill="none" stroke="#555555" d="M1593.42,-125.76C1604.32,-128.59 1615.72,-131.56 1626.86,-134.46"/>
<polygon fill="#555555" stroke="#555555" points="1626.37,-136.86 1633.76,-136.25 1627.6,-132.12 1626.37,-136.86"/>
</g>
<!-- gate -->
<g id="node14" class="node">
<title>gate</title>
<path fill="#ffffff" stroke="#444444" d="M1880.1,-198.97C1880.1,-198.97 1823.9,-173.03 1823.9,-173.03 1818.45,-170.51 1818.45,-165.49 1823.9,-162.97 1823.9,-162.97 1880.1,-137.03 1880.1,-137.03 1885.55,-134.51 1896.45,-134.51 1901.9,-137.03 1901.9,-137.03 1958.1,-162.97 1958.1,-162.97 1963.55,-165.49 1963.55,-170.51 1958.1,-173.03 1958.1,-173.03 1901.9,-198.97 1901.9,-198.97 1896.45,-201.49 1885.55,-201.49 1880.1,-198.97"/>
<text text-anchor="middle" x="1891" y="-171.2" font-family="Arial" font-size="11.00">All release</text>
<text text-anchor="middle" x="1891" y="-159.2" font-family="Arial" font-size="11.00">gates pass?</text>
</g>
<!-- doccheck&#45;&gt;gate -->
<g id="edge16" class="edge">
<title>doccheck&#45;&gt;gate</title>
<path fill="none" stroke="#555555" d="M1772.2,-159.13C1786.64,-160.22 1801.93,-161.37 1816.55,-162.47"/>
<polygon fill="#555555" stroke="#555555" points="1816.5,-164.92 1823.67,-163.01 1816.87,-160.04 1816.5,-164.92"/>
</g>
<!-- merge -->
<g id="node15" class="node">
<title>merge</title>
<path fill="#e9f6ea" stroke="#444444" d="M2132.5,-195C2132.5,-195 2054.5,-195 2054.5,-195 2048.5,-195 2042.5,-189 2042.5,-183 2042.5,-183 2042.5,-171 2042.5,-171 2042.5,-165 2048.5,-159 2054.5,-159 2054.5,-159 2132.5,-159 2132.5,-159 2138.5,-159 2144.5,-165 2144.5,-171 2144.5,-171 2144.5,-183 2144.5,-183 2144.5,-189 2138.5,-195 2132.5,-195"/>
<text text-anchor="middle" x="2093.5" y="-180.2" font-family="Arial" font-size="11.00">Merge and retain</text>
<text text-anchor="middle" x="2093.5" y="-168.2" font-family="Arial" font-size="11.00">release evidence</text>
</g>
<!-- gate&#45;&gt;merge -->
<g id="edge17" class="edge">
<title>gate&#45;&gt;merge</title>
<path fill="none" stroke="#555555" d="M1962.41,-171.16C1986.23,-172.23 2012.53,-173.41 2035.21,-174.43"/>
<polygon fill="#555555" stroke="#555555" points="2035.34,-176.89 2042.44,-174.75 2035.56,-171.99 2035.34,-176.89"/>
<text text-anchor="middle" x="1996.5" y="-174.8" font-family="Arial" font-size="9.00">yes</text>
</g>
<!-- correct -->
<g id="node16" class="node">
<title>correct</title>
<path fill="#fff4e5" stroke="#444444" d="M2151,-123C2151,-123 2036,-123 2036,-123 2030,-123 2024,-117 2024,-111 2024,-111 2024,-99 2024,-99 2024,-93 2030,-87 2036,-87 2036,-87 2151,-87 2151,-87 2157,-87 2163,-93 2163,-99 2163,-99 2163,-111 2163,-111 2163,-117 2157,-123 2151,-123"/>
<text text-anchor="middle" x="2093.5" y="-108.2" font-family="Arial" font-size="11.00">Correct code, SQL, tests</text>
<text text-anchor="middle" x="2093.5" y="-96.2" font-family="Arial" font-size="11.00">or documentation</text>
</g>
<!-- gate&#45;&gt;correct -->
<g id="edge18" class="edge">
<title>gate&#45;&gt;correct</title>
<path fill="none" stroke="#555555" d="M1938,-153.55C1964.65,-145.17 1998.62,-134.5 2027.92,-125.29"/>
<polygon fill="#555555" stroke="#555555" points="2028.93,-127.54 2034.87,-123.11 2027.46,-122.87 2028.93,-127.54"/>
<text text-anchor="middle" x="1996.5" y="-138.8" font-family="Arial" font-size="9.00">no</text>
</g>
<!-- correct&#45;&gt;verify -->
<g id="edge19" class="edge">
<title>correct&#45;&gt;verify</title>
<path fill="none" stroke="#555555" d="M2023.64,-105.49C1916.04,-106.25 1709.1,-107.72 1600.13,-108.5"/>
<polygon fill="#555555" stroke="#555555" points="1600.07,-106.05 1593.09,-108.55 1600.11,-110.95 1600.07,-106.05"/>
</g>
</g>
</svg>
