<?plantuml 1.2026.1?><svg xmlns="http://www.w3.org/2000/svg" xmlns:xlink="http://www.w3.org/1999/xlink" contentStyleType="text/css" data-diagram-type="DESCRIPTION" height="483px" preserveAspectRatio="none" style="width:907px;height:483px;background:#FFFFFF;" version="1.1" viewBox="0 0 907 483" width="907px" zoomAndPan="magnify"><title>OpenData Deployment Topology</title><defs/><g><g class="title" data-source-line="2"><text fill="#000000" font-family="sans-serif" font-size="14" font-weight="bold" lengthAdjust="spacing" textLength="256.1357" x="316.4321" y="22.9951">OpenData Deployment Topology</text></g><!--cluster Execution Host--><g class="cluster" data-qualified-name="Execution Host" data-source-line="5" id="ent0003"><polygon fill="none" points="14,180.2969,24,170.2969,710,170.2969,710,348.2969,700,358.2969,14,358.2969,14,180.2969" style="stroke:#181818;stroke-width:1;"/><line style="stroke:#181818;stroke-width:1;" x1="700" x2="710" y1="180.2969" y2="170.2969"/><line style="stroke:#181818;stroke-width:1;" x1="14" x2="700" y1="180.2969" y2="180.2969"/><line style="stroke:#181818;stroke-width:1;" x1="700" x2="700" y1="180.2969" y2="358.2969"/><text fill="#000000" font-family="sans-serif" font-size="14" font-weight="bold" lengthAdjust="spacing" textLength="118.665" x="298.6675" y="196.292">Execution Host</text></g><!--entity Operator--><g class="entity" data-qualified-name="Operator" data-source-line="4" id="ent0002"><ellipse cx="470.8784" cy="57.7969" fill="#F1F1F1" rx="8" ry="8" style="stroke:#181818;stroke-width:0.5;"/><path d="M470.8784,65.7969 L470.8784,92.7969 M457.8784,73.7969 L483.8784,73.7969 M470.8784,92.7969 L457.8784,107.7969 M470.8784,92.7969 L483.8784,107.7969" fill="none" style="stroke:#181818;stroke-width:0.5;"/><text fill="#000000" font-family="sans-serif" font-size="14" lengthAdjust="spacing" textLength="218.7568" x="361.5" y="122.292">Operator or External Scheduler</text></g><!--entity Providers--><g class="entity" data-qualified-name="Providers" data-source-line="13" id="ent0009"><path d="M729.8868,309.9059 C732.4519,304.3548 736.5124,305.2919 739.6987,309.266 C743.0349,302.4716 747.9333,302.0852 752.2003,308.3767 C755.4422,303.0233 760.2384,303.1781 763.2057,308.6557 C766.2571,301.5164 771.7772,301.0132 775.8713,307.7007 C778.6334,302.4636 782.8258,301.8053 786.9868,306.0631 C790.1727,301.1027 794.7161,301.1334 798.228,305.6777 C801.3872,300.6608 806.0834,301.3524 809.1658,305.7667 C812.7036,298.4616 818.9087,299.9969 822.4851,305.7272 C825.9058,302.0709 830.4815,301.9206 832.1887,307.5231 C837.0359,301.3155 840.8401,302.8729 844.6767,308.5821 C848.3851,302.1891 852.6406,303.4434 856.4606,308.4668 C860.4498,303.6789 864.6627,304.1219 867.8593,309.3672 C871.9826,303.6721 875.8042,302.4636 880.581,308.6684 C884.0225,303.8087 887.9949,303.743 891.5837,308.4998 C900.9271,314.3652 898.9257,319.5408 891.7856,325.6008 C898.2888,330.286 896.5182,335.2586 890.8254,339.0747 C888.1347,344.1257 883.6612,344.4111 879.9153,340.3362 C877.015,345.8821 872.3129,347.2472 868.466,341.2773 C865.3426,346.9838 861.2634,346.7323 857.3439,342.1367 C853.5486,348.1177 849.494,347.193 845.6774,342.1593 C843.4062,349.3587 837.8411,350.1194 833.3243,344.2882 C830.5133,349.8203 824.908,351.6852 820.6635,345.8904 C817.7483,351.5776 812.9842,352.4309 809.1607,346.8147 C804.7365,351.3574 800.978,350.5827 798.4713,344.8249 C795.0502,350.1519 790.8192,350.1656 787.9178,344.3334 C782.1829,350.8967 778.1945,349.5422 774.5236,342.3269 C771.0817,348.6653 767.4438,348.0874 763.3054,343.0113 C759.0954,349.0465 755.2545,347.9881 751.8074,342.2653 C747.1083,346.2453 743.8896,344.6417 741.5362,339.596 C738.3148,345.9971 734.1405,345.6885 729.7858,340.7727 C720.5849,339.1356 716.9975,333.467 721.8552,324.8345 C718.0544,317.1406 721.1816,310.8715 729.8868,309.9059" fill="#F1F1F1" style="stroke:#181818;stroke-width:0.5;"/><text fill="#000000" font-family="sans-serif" font-size="14" lengthAdjust="spacing" textLength="148.0459" x="735" y="328.292">Public data providers</text></g><!--entity Database--><g class="entity" data-qualified-name="Database" data-source-line="14" id="ent0010"><path d="M520.5,415.2969 C520.5,405.2969 616.9609,405.2969 616.9609,405.2969 C616.9609,405.2969 713.4219,405.2969 713.4219,415.2969 L713.4219,456.8906 C713.4219,466.8906 616.9609,466.8906 616.9609,466.8906 C616.9609,466.8906 520.5,466.8906 520.5,456.8906 L520.5,415.2969" fill="#F1F1F1" style="stroke:#181818;stroke-width:0.5;"/><path d="M520.5,415.2969 C520.5,425.2969 616.9609,425.2969 616.9609,425.2969 C616.9609,425.2969 713.4219,425.2969 713.4219,415.2969" fill="none" style="stroke:#181818;stroke-width:0.5;"/><text fill="#000000" font-family="sans-serif" font-size="14" lengthAdjust="spacing" textLength="158.0537" x="530.5" y="442.292">SQL Server: OpenData</text><text fill="#000000" font-family="sans-serif" font-size="14" lengthAdjust="spacing" textLength="172.9219" x="530.5" y="458.5889">core, ofgem, openmeteo</text></g><!--entity Application--><g class="entity" data-qualified-name="Execution Host.Application" data-source-line="6" id="ent0004"><rect fill="#F1F1F1" height="39.2969" rx="2.5" ry="2.5" style="stroke:#181818;stroke-width:0.5;" width="345.1982" x="298.5" y="202.2969"/><polygon fill="#F1F1F1" points="626.6982,207.2969,626.6982,221.2969,638.6982,221.2969,638.6982,213.2969,632.6982,207.2969,626.6982,207.2969" style="stroke:#181818;stroke-width:0.5;"/><line style="stroke:#181818;stroke-width:0.5;" x1="632.6982" x2="632.6982" y1="207.2969" y2="213.2969"/><line style="stroke:#181818;stroke-width:0.5;" x1="638.6982" x2="632.6982" y1="213.2969" y2="213.2969"/><text fill="#000000" font-family="sans-serif" font-size="14" lengthAdjust="spacing" textLength="315.1982" x="308.5" y="228.292">OpenData Java 17 classes and dependencies</text></g><!--entity Config--><g class="entity" data-qualified-name="Execution Host.Config" data-source-line="7" id="ent0005"><path d="M22.5,307.7969 L22.5,339.0938 A2.5,2.5 0 0 0 25,341.5938 L237.3467,341.5938 A2.5,2.5 0 0 0 239.8467,339.0938 L239.8467,315.2969 L229.8467,305.2969 L25,305.2969 A2.5,2.5 0 0 0 22.5,307.7969" fill="#F1F1F1" style="stroke:#181818;stroke-width:0.5;"/><path d="M229.8467,305.2969 L229.8467,312.7969 A2.5,2.5 0 0 0 232.3467,315.2969 L239.8467,315.2969" fill="#F1F1F1" style="stroke:#181818;stroke-width:0.5;"/><text fill="#000000" font-family="sans-serif" font-size="14" lengthAdjust="spacing" textLength="197.3467" x="32.5" y="328.292">External override properties</text></g><!--entity Files--><g class="entity" data-qualified-name="Execution Host.Files" data-source-line="8" id="ent0006"><path d="M260,296.2969 L301,296.2969 A3.75,3.75 0 0 1 303.5,298.7969 L310.5,317.2969 L408.2041,317.2969 A2.5,2.5 0 0 1 410.7041,319.7969 L410.7041,348.0938 A2.5,2.5 0 0 1 408.2041,350.5938 L260,350.5938 A2.5,2.5 0 0 1 257.5,348.0938 L257.5,298.7969 A2.5,2.5 0 0 1 260,296.2969" fill="#F1F1F1" style="stroke:#181818;stroke-width:0.5;"/><line style="stroke:#181818;stroke-width:0.5;" x1="257.5" x2="310.5" y1="317.2969" y2="317.2969"/><text fill="#000000" font-family="sans-serif" font-size="14" lengthAdjust="spacing" textLength="123.2041" x="267.5" y="337.292">Work and archive</text></g><!--entity Logs--><g class="entity" data-qualified-name="Execution Host.Logs" data-source-line="9" id="ent0007"><path d="M431,296.2969 L472,296.2969 A3.75,3.75 0 0 1 474.5,298.7969 L481.5,317.2969 L511.2617,317.2969 A2.5,2.5 0 0 1 513.7617,319.7969 L513.7617,348.0938 A2.5,2.5 0 0 1 511.2617,350.5938 L431,350.5938 A2.5,2.5 0 0 1 428.5,348.0938 L428.5,298.7969 A2.5,2.5 0 0 1 431,296.2969" fill="#F1F1F1" style="stroke:#181818;stroke-width:0.5;"/><line style="stroke:#181818;stroke-width:0.5;" x1="428.5" x2="481.5" y1="317.2969" y2="317.2969"/><text fill="#000000" font-family="sans-serif" font-size="14" lengthAdjust="spacing" textLength="55.2617" x="438.5" y="337.292">JUL logs</text></g><!--entity Pool--><g class="entity" data-qualified-name="Execution Host.Pool" data-source-line="10" id="ent0008"><rect fill="#F1F1F1" height="46.2969" rx="2.5" ry="2.5" style="stroke:#181818;stroke-width:0.5;" width="169.6367" x="532" y="300.2969"/><rect fill="#F1F1F1" height="10" style="stroke:#181818;stroke-width:0.5;" width="15" x="681.6367" y="305.2969"/><rect fill="#F1F1F1" height="2" style="stroke:#181818;stroke-width:0.5;" width="4" x="679.6367" y="307.2969"/><rect fill="#F1F1F1" height="2" style="stroke:#181818;stroke-width:0.5;" width="4" x="679.6367" y="311.2969"/><text fill="#000000" font-family="sans-serif" font-size="14" lengthAdjust="spacing" textLength="129.6367" x="547" y="333.292">Apache DBCP pool</text></g><g class="link" data-entity-1="ent0002" data-entity-2="ent0004" data-link-type="dependency" id="lnk11"><polygon fill="#181818" points="471,202.1015,475,193.1015,471,197.1015,467,193.1015,471,202.1015" style="stroke:#181818;stroke-width:1;"/><path d="M471,125.5581 C471,150.5113 471,176.2989 471,196.1015" fill="none" style="stroke:#181818;stroke-width:1;"/><text fill="#000000" font-family="sans-serif" font-size="13" lengthAdjust="spacing" textLength="140.6133" x="473" y="157.3638">command-line launch</text></g><g class="link" data-entity-1="ent0004" data-entity-2="ent0005" data-link-type="dependency" id="lnk12"><polygon fill="#181818" points="189.1356,305.2837,198.8968,306.5948,193.9344,303.8793,196.6499,298.9169,189.1356,305.2837" style="stroke:#181818;stroke-width:1;"/><path d="M407.4474,241.3953 C344.789,259.7321 255.6059,285.8313 194.8941,303.5984" fill="none" style="stroke:#181818;stroke-width:1;"/><text fill="#000000" font-family="sans-serif" font-size="13" lengthAdjust="spacing" textLength="29.561" x="344" y="273.3638">read</text></g><g class="link" data-entity-1="ent0004" data-entity-2="ent0006" data-link-type="dependency" id="lnk13"><polygon fill="#181818" points="369.9923,296.1565,379.625,294.1041,374.0379,293.2182,374.9238,287.6312,369.9923,296.1565" style="stroke:#181818;stroke-width:1;"/><path d="M445.2313,241.5121 C423.9934,256.9367 398.4856,275.4624 374.8471,292.6306" fill="none" style="stroke:#181818;stroke-width:1;"/></g><g class="link" data-entity-1="ent0004" data-entity-2="ent0007" data-link-type="dependency" id="lnk14"><polygon fill="#181818" points="471,296.1565,475,287.1565,471,291.1565,467,287.1565,471,296.1565" style="stroke:#181818;stroke-width:1;"/><path d="M471,241.5121 C471,256.9367 471,272.9883 471,290.1565" fill="none" style="stroke:#181818;stroke-width:1;"/></g><g class="link" data-entity-1="ent0004" data-entity-2="ent0009" data-link-type="dependency" id="lnk15"><polygon fill="#181818" points="734.0348,300.2287,726.5307,293.8499,729.2383,298.8167,724.2715,301.5243,734.0348,300.2287" style="stroke:#181818;stroke-width:1;"/><path d="M534.1787,241.3953 C590.8319,258.0728 668.2771,280.8711 728.279,298.5343" fill="none" style="stroke:#181818;stroke-width:1;"/><text fill="#000000" font-family="sans-serif" font-size="13" lengthAdjust="spacing" textLength="41.7485" x="652" y="273.3638">HTTPS</text></g><g class="link" data-entity-1="ent0004" data-entity-2="ent0008" data-link-type="dependency" id="lnk16"><polygon fill="#181818" points="584.5639,300.1914,579.3794,291.8176,580.4321,297.3756,574.8741,298.4284,584.5639,300.1914" style="stroke:#181818;stroke-width:1;"/><path d="M498.4615,241.5121 C522.9119,258.1752 553.7524,279.1932 579.6058,296.8125" fill="none" style="stroke:#181818;stroke-width:1;"/></g><g class="link" data-entity-1="ent0008" data-entity-2="ent0010" data-link-type="dependency" id="lnk17"><polygon fill="#181818" points="617,405.15,621,396.15,617,400.15,613,396.15,617,405.15" style="stroke:#181818;stroke-width:1;"/><path d="M617,346.4926 C617,363.3216 617,380.6336 617,399.15" fill="none" style="stroke:#181818;stroke-width:1;"/><text fill="#000000" font-family="sans-serif" font-size="13" lengthAdjust="spacing" textLength="101.9941" x="619" y="382.3638">encrypted JDBC</text></g><?plantuml-src PL71QW8n4BtdAwPxheUU2ZqKRBKK4Rf5Io-zZCceeTbCIBAYbFvx9zageh1a9pDlNkQzkGaHDns2mmFt6L976JsgRBCZU0la9vWH9XGS7pho6POSsF7ce1Jgp14Q0KKiaNpJVQReqS52RydqZc83cE08KPuDGJFTa-wpPG-ld783Fme0OxPhOQnymwCpt27StODsc18bG6_0a5GDUMqfLUfn2CvgB6p2ihQkylzFmJkAqSgJ8RACa8zDp-pNTbFmx0o9Xa-EtvKVezxQ7LNKYv2bCz3iOmwYVA2OIo0rpLrWNtnfnW55D4oUdbi8pAx2MWdKhrBQSM-WQVkLJ0kco9EPTZ9R7FZQuqsLuWgJw5Yyps51KKGyd5RnvJL7kWLURwYJdwHbPSILPFBVgjHfAQFHuxb7y516xaJgo5bFilRUwwqwHvIEmI01Hq9pLHsCkSnMHowJ9rd2zRfSjejhH76e7FLsL21mMN8yX4m6PkBf7m00?></g></svg>