<svg xmlns="http://www.w3.org/2000/svg" xmlns:xlink="http://www.w3.org/1999/xlink" contentStyleType="text/css" data-diagram-type="DESCRIPTION" height="481px" preserveAspectRatio="none" style="width:840px;height:481px;background:#FFFFFF;" version="1.1" viewBox="0 0 840 481" width="840px" zoomAndPan="magnify"><?plantuml 1.2026.6?><defs/><g><g class="title" data-source-line="2"><text fill="#000000" font-family="sans-serif" font-size="14" font-weight="700" lengthAdjust="spacing" textLength="217.0137" x="308.2432" y="24.5332">OpenData Deployment Topology</text></g><!--cluster Execution Host--><g class="cluster" data-qualified-name="Execution Host" data-source-line="5" id="ent0002"><polygon fill="none" points="14,184.6094,24,174.6094,662,174.6094,662,358.6094,652,368.6094,14,368.6094,14,184.6094" style="stroke:#181818;stroke-width:1;stroke-linejoin:miter;stroke-miterlimit:10;"/><line style="stroke:#181818;stroke-width:1;" x1="652" x2="662" y1="184.6094" y2="174.6094"/><line style="stroke:#181818;stroke-width:1;" x1="14" x2="652" y1="184.6094" y2="184.6094"/><line style="stroke:#181818;stroke-width:1;" x1="652" x2="652" y1="184.6094" y2="368.6094"/><text fill="#000000" font-family="sans-serif" font-size="14" font-weight="700" lengthAdjust="spacing" textLength="101.9033" x="283.0483" y="202.1426">Execution Host</text></g><!--entity Operator--><g class="entity" data-qualified-name="Operator" data-source-line="4" id="ent0001"><ellipse cx="431.8823" cy="59.1094" fill="#F1F1F1" rx="8" ry="8" style="stroke:#181818;stroke-width:0.5;"/><path d="M431.8823,67.1094 L431.8823,94.1094 M418.8823,75.1094 L444.8823,75.1094 M431.8823,94.1094 L418.8823,109.1094 M431.8823,94.1094 L444.8823,109.1094" fill="none" style="stroke:#181818;stroke-width:0.5;"/><text fill="#000000" font-family="sans-serif" font-size="14" lengthAdjust="spacing" textLength="193.7646" x="335" y="125.1426">Operator or External Scheduler</text></g><!--entity Providers--><g class="entity" data-qualified-name="Providers" data-source-line="13" id="ent0008"><path d="M679.9946,318.0068 C682.6965,311.8426 688.0654,311.1801 692.3923,316.2064 C695.5431,310.1238 701.4332,309.2656 704.8762,315.92 C708.1868,309.3005 714.3399,309.9241 717.5149,316.0545 C721.008,310.5578 724.5271,309.7014 729.1741,314.7827 C732.5526,308.367 736.7959,308.3433 741.4743,313.3875 C744.2399,307.7799 749.0511,305.4999 753.837,311.1736 C758.9427,306.9736 762.3859,308.1997 764.7103,314.1524 C768.9785,308.4556 772.9512,309.443 776.4386,314.9684 C780.414,309.4121 785.4147,309.4068 789.6272,314.6798 C794.0123,308.2548 797.7064,308.6436 801.6744,315.0708 C806.1029,310.154 811.6934,311.4286 813.5829,317.7591 C816.3704,311.6192 821.9416,311.23 825.4795,317.0102 C834.8262,318.4723 837.3089,324.8591 832.7811,332.7554 C838.3285,340.4855 837.0498,348.3631 826.0888,349.4924 C823.4157,355.9363 817.7194,356.0213 814.1841,350.3387 C810.5974,356.0094 806.1537,355.5147 802.256,350.6922 C797.7469,358.1705 793.2286,357.4394 788.412,350.998 C785.6645,355.8652 780.3511,355.998 777.3671,351.2702 C774.9522,356.4887 769.6164,358.2767 765.9721,352.5501 C761.7993,357.9383 757.1218,358.1706 752.9368,352.5646 C749.6839,358.8028 744.224,357.9637 741.331,352.2162 C738.1305,359.5854 731.7117,359.6412 727.8668,352.8281 C723.7973,357.1327 719.9101,356.9458 716.7959,351.7185 C712.6015,356.6139 706.9097,355.1522 704.6444,349.4968 C701.8242,354.8315 696.7169,355.1021 693.5295,349.8836 C689.1769,355.2384 684.9606,355.5354 681.1083,349.3454 C670.7411,348.6554 667.2476,341.0909 673.7824,332.8805 C668.3413,324.5399 671.2093,320.4056 679.9946,318.0068" fill="#F1F1F1" style="stroke:#181818;stroke-width:0.5;"/><text fill="#000000" font-family="sans-serif" font-size="14" lengthAdjust="spacing" textLength="130.7373" x="686.5" y="338.1426">Public data providers</text></g><!--entity Database--><g class="entity" data-qualified-name="Database" data-source-line="14" id="ent0009"><path d="M487,426.6094 C487,416.6094 572.8789,416.6094 572.8789,416.6094 C572.8789,416.6094 658.7578,416.6094 658.7578,426.6094 L658.7578,470.8281 C658.7578,480.8281 572.8789,480.8281 572.8789,480.8281 C572.8789,480.8281 487,480.8281 487,470.8281 L487,426.6094" fill="#F1F1F1" style="stroke:#181818;stroke-width:0.5;"/><path d="M487,426.6094 C487,436.6094 572.8789,436.6094 572.8789,436.6094 C572.8789,436.6094 658.7578,436.6094 658.7578,426.6094" fill="none" style="stroke:#181818;stroke-width:0.5;"/><text fill="#000000" font-family="sans-serif" font-size="14" lengthAdjust="spacing" textLength="144.7373" x="497" y="455.1426">SQL Server: OpenData</text><text fill="#000000" font-family="sans-serif" font-size="14" lengthAdjust="spacing" textLength="151.7578" x="497" y="472.752">core, ofgem, openmeteo</text></g><!--entity Application--><g class="entity" data-qualified-name="Execution Host.Application" data-source-line="6" id="ent0003"><rect fill="#F1F1F1" height="40.6094" rx="2.5" ry="2.5" style="stroke:#181818;stroke-width:0.5;" width="315.6396" x="274" y="207.6094"/><polygon fill="#F1F1F1" points="572.6396,212.6094,572.6396,226.6094,584.6396,226.6094,584.6396,218.6094,578.6396,212.6094,572.6396,212.6094" style="stroke:#181818;stroke-width:0.5;stroke-linejoin:miter;stroke-miterlimit:10;"/><line style="stroke:#181818;stroke-width:0.5;" x1="578.6396" x2="578.6396" y1="212.6094" y2="218.6094"/><line style="stroke:#181818;stroke-width:0.5;" x1="584.6396" x2="578.6396" y1="218.6094" y2="218.6094"/><text fill="#000000" font-family="sans-serif" font-size="14" lengthAdjust="spacing" textLength="285.6396" x="284" y="235.1426">OpenData Java 17 classes and dependencies</text></g><!--entity Config--><g class="entity" data-qualified-name="Execution Host.Config" data-source-line="7" id="ent0004"><path d="M22,316.1094 L22,348.7188 A2.5,2.5 0 0 0 24.5,351.2188 L211.4717,351.2188 A2.5,2.5 0 0 0 213.9717,348.7188 L213.9717,323.6094 L203.9717,313.6094 L24.5,313.6094 A2.5,2.5 0 0 0 22,316.1094" fill="#F1F1F1" style="stroke:#181818;stroke-width:0.5;"/><path d="M203.9717,313.6094 L203.9717,321.1094 A2.5,2.5 0 0 0 206.4717,323.6094 L213.9717,323.6094" fill="#F1F1F1" style="stroke:#181818;stroke-width:0.5;"/><text fill="#000000" font-family="sans-serif" font-size="14" lengthAdjust="spacing" textLength="171.9717" x="32" y="338.1426">External override properties</text></g><!--entity Files--><g class="entity" data-qualified-name="Execution Host.Files" data-source-line="8" id="ent0005"><path d="M235,304.6094 L276,304.6094 A3.75,3.75 0 0 1 278.5,307.1094 L285.5,325.6094 L368.9307,325.6094 A2.5,2.5 0 0 1 371.4307,328.1094 L371.4307,357.7188 A2.5,2.5 0 0 1 368.9307,360.2188 L235,360.2188 A2.5,2.5 0 0 1 232.5,357.7188 L232.5,307.1094 A2.5,2.5 0 0 1 235,304.6094" fill="#F1F1F1" style="stroke:#181818;stroke-width:0.5;"/><line style="stroke:#181818;stroke-width:0.5;" x1="232.5" x2="285.5" y1="325.6094" y2="325.6094"/><text fill="#000000" font-family="sans-serif" font-size="14" lengthAdjust="spacing" textLength="108.9307" x="242.5" y="347.1426">Work and archive</text></g><!--entity Logs--><g class="entity" data-qualified-name="Execution Host.Logs" data-source-line="9" id="ent0006"><path d="M392.5,304.6094 L433.5,304.6094 A3.75,3.75 0 0 1 436,307.1094 L443,325.6094 L471.9688,325.6094 A2.5,2.5 0 0 1 474.4688,328.1094 L474.4688,357.7188 A2.5,2.5 0 0 1 471.9688,360.2188 L392.5,360.2188 A2.5,2.5 0 0 1 390,357.7188 L390,307.1094 A2.5,2.5 0 0 1 392.5,304.6094" fill="#F1F1F1" style="stroke:#181818;stroke-width:0.5;"/><line style="stroke:#181818;stroke-width:0.5;" x1="390" x2="443" y1="325.6094" y2="325.6094"/><text fill="#000000" font-family="sans-serif" font-size="14" lengthAdjust="spacing" textLength="54.4688" x="400" y="347.1426">JUL logs</text></g><!--entity Pool--><g class="entity" data-qualified-name="Execution Host.Pool" data-source-line="10" id="ent0007"><rect fill="#F1F1F1" height="47.6094" rx="2.5" ry="2.5" style="stroke:#181818;stroke-width:0.5;" width="160.627" x="492.5" y="308.6094"/><rect fill="#F1F1F1" height="10" style="stroke:#181818;stroke-width:0.5;" width="15" x="633.127" y="313.6094"/><rect fill="#F1F1F1" height="2" style="stroke:#181818;stroke-width:0.5;" width="4" x="631.127" y="315.6094"/><rect fill="#F1F1F1" height="2" style="stroke:#181818;stroke-width:0.5;" width="4" x="631.127" y="319.6094"/><text fill="#000000" font-family="sans-serif" font-size="14" lengthAdjust="spacing" textLength="120.627" x="507.5" y="343.1426">Apache DBCP pool</text></g><g class="link" data-entity-1="ent0001" data-entity-2="ent0003" data-link-type="dependency" id="lnk10"><polygon fill="#181818" points="432,207.3659,436,198.3659,432,202.3659,428,198.3659,432,207.3659" style="stroke:#181818;stroke-width:1;stroke-linejoin:miter;stroke-miterlimit:10;"/><path d="M432,128.6322 C432,154.1911 432,181.8373 432,202.3659" fill="none" style="stroke:#181818;stroke-width:1;"/><text fill="#000000" font-family="sans-serif" font-size="13" lengthAdjust="spacing" textLength="123.5635" x="434" y="162.1045">command-line launch</text></g><g class="link" data-entity-1="ent0003" data-entity-2="ent0004" data-link-type="dependency" id="lnk11"><polygon fill="#181818" points="173.3662,313.536,183.1632,314.5457,178.1194,311.9844,180.6806,306.9406,173.3662,313.536" style="stroke:#181818;stroke-width:1;stroke-linejoin:miter;stroke-miterlimit:10;"/><path d="M372.1999,248.6301 C314.9039,267.3334 233.8868,293.7801 178.1194,311.9844" fill="none" style="stroke:#181818;stroke-width:1;"/><text fill="#000000" font-family="sans-serif" font-size="13" lengthAdjust="spacing" textLength="26.019" x="315" y="282.1045">read</text></g><g class="link" data-entity-1="ent0003" data-entity-2="ent0005" data-link-type="dependency" id="lnk12"><polygon fill="#181818" points="336.4857,304.4188,346.0297,301.9874,340.412,301.323,341.0765,295.7053,336.4857,304.4188" style="stroke:#181818;stroke-width:1;stroke-linejoin:miter;stroke-miterlimit:10;"/><path d="M407.242,248.6301 C387.2041,264.4292 362.6808,283.7649 340.412,301.323" fill="none" style="stroke:#181818;stroke-width:1;"/></g><g class="link" data-entity-1="ent0003" data-entity-2="ent0006" data-link-type="dependency" id="lnk13"><polygon fill="#181818" points="432,304.5446,436,295.5446,432,299.5446,428,295.5446,432,304.5446" style="stroke:#181818;stroke-width:1;stroke-linejoin:miter;stroke-miterlimit:10;"/><path d="M432,248.8724 C432,264.6959 432,282.0575 432,299.5446" fill="none" style="stroke:#181818;stroke-width:1;"/></g><g class="link" data-entity-1="ent0003" data-entity-2="ent0008" data-link-type="dependency" id="lnk14"><polygon fill="#181818" points="680.0954,308.5774,672.7446,302.0227,675.3337,307.0522,670.3042,309.6414,680.0954,308.5774" style="stroke:#181818;stroke-width:1;stroke-linejoin:miter;stroke-miterlimit:10;"/><path d="M492.9428,248.6301 C546.2562,265.707 618.999,289.0075 675.3337,307.0522" fill="none" style="stroke:#181818;stroke-width:1;"/><text fill="#000000" font-family="sans-serif" font-size="13" lengthAdjust="spacing" textLength="42.6118" x="613" y="282.1045">HTTPS</text></g><g class="link" data-entity-1="ent0003" data-entity-2="ent0007" data-link-type="dependency" id="lnk15"><polygon fill="#181818" points="541.317,308.5774,536.3893,300.05,537.2727,305.6374,531.6853,306.5209,541.317,308.5774" style="stroke:#181818;stroke-width:1;stroke-linejoin:miter;stroke-miterlimit:10;"/><path d="M458.8529,248.6301 C482.3441,265.707 512.4502,287.5927 537.2727,305.6374" fill="none" style="stroke:#181818;stroke-width:1;"/></g><g class="link" data-entity-1="ent0007" data-entity-2="ent0009" data-link-type="dependency" id="lnk16"><polygon fill="#181818" points="573,416.3642,577,407.3642,573,411.3642,569,407.3642,573,416.3642" style="stroke:#181818;stroke-width:1;stroke-linejoin:miter;stroke-miterlimit:10;"/><path d="M573,356.679 C573,373.855 573,392.4939 573,411.3642" fill="none" style="stroke:#181818;stroke-width:1;"/><text fill="#000000" font-family="sans-serif" font-size="13" lengthAdjust="spacing" textLength="94.6499" x="575" y="394.1045">encrypted JDBC</text></g><?plantuml-src PL71QW8n4BtdAwPxheUU2ZqKRBKK4Rf5Io-zZCceeTbCIBAYbFvx9zageh1a9pDlNkQzkGaHDns2mmFt6L976JsgRBCZU0la9vWH9XGS7pho6POSsF7ce1Jgp14Q0KKiaNpJVQReqS52RydqZc83cE08KPuDGJFTa-wpPG-ld783Fme0OxPhOQnymwCpt27StODsc18bG6_0a5GDUMqfLUfn2CvgB6p2ihQkylzFmJkAqSgJ8RACa8zDp-pNTbFmx0o9Xa-EtvKVezxQ7LNKYv2bCz3iOmwYVA2OIo0rpLrWNtnfnW55D4oUdbi8pAx2MWdKhrBQSM-WQVkLJ0kco9EPTZ9R7FZQuqsLuWgJw5Yyps51KKGyd5RnvJL7kWLURwYJdwHbPSILPFBVgjHfAQFHuxb7y516xaJgo5bFilRUwwqwHvIEmI01Hq9pLHsCkSnMHowJ9rd2zRfSjejhH76e7FLsL21mMN8yX4m6PkBf7m00?></g></svg>