<?xml version="1.0" encoding="UTF-8" standalone="no"?>
<!DOCTYPE svg PUBLIC "-//W3C//DTD SVG 1.1//EN"
 "http://www.w3.org/Graphics/SVG/1.1/DTD/svg11.dtd">
<!-- Generated by graphviz version 2.42.4 (0)
 -->
<!-- Title: G Pages: 1 -->
<svg width="703pt" height="529pt"
 viewBox="0.00 0.00 703.25 528.58" xmlns="http://www.w3.org/2000/svg" xmlns:xlink="http://www.w3.org/1999/xlink">
<g id="graph0" class="graph" transform="scale(1 1) rotate(0) translate(21.6 506.98)">
<title>G</title>
<polygon fill="white" stroke="transparent" points="-21.6,21.6 -21.6,-506.98 681.65,-506.98 681.65,21.6 -21.6,21.6"/>
<text text-anchor="middle" x="330.02" y="-465.38" font-family="Arial" font-size="20.00">OpenData Version 2.0.0 System Context</text>
<!-- operator -->
<g id="node1" class="node">
<title>operator</title>
<ellipse fill="none" stroke="black" cx="82.02" cy="-243.38" rx="82.05" ry="26.74"/>
<text text-anchor="middle" x="82.02" y="-246.57" font-family="Arial" font-size="11.00">Operator /</text>
<text text-anchor="middle" x="82.02" y="-234.57" font-family="Arial" font-size="11.00">External Scheduler</text>
</g>
<!-- app -->
<g id="node2" class="node">
<title>app</title>
<path fill="none" stroke="black" stroke-width="2" d="M370.05,-262.38C370.05,-262.38 292.05,-262.38 292.05,-262.38 286.05,-262.38 280.05,-256.38 280.05,-250.38 280.05,-250.38 280.05,-236.38 280.05,-236.38 280.05,-230.38 286.05,-224.38 292.05,-224.38 292.05,-224.38 370.05,-224.38 370.05,-224.38 376.05,-224.38 382.05,-230.38 382.05,-236.38 382.05,-236.38 382.05,-250.38 382.05,-250.38 382.05,-256.38 376.05,-262.38 370.05,-262.38"/>
<text text-anchor="middle" x="331.05" y="-246.57" font-family="Arial" font-size="11.00">OpenData</text>
<text text-anchor="middle" x="331.05" y="-234.57" font-family="Arial" font-size="11.00">Java Application</text>
</g>
<!-- operator&#45;&gt;app -->
<g id="edge1" class="edge">
<title>operator&#45;&gt;app</title>
<path fill="none" stroke="black" d="M164.25,-243.38C198.64,-243.38 238,-243.38 269.74,-243.38"/>
<polygon fill="black" stroke="black" points="269.76,-246.88 279.76,-243.38 269.76,-239.88 269.76,-246.88"/>
<text text-anchor="middle" x="222.05" y="-246.18" font-family="Arial" font-size="9.00">CLI command</text>
</g>
<!-- config -->
<g id="node3" class="node">
<title>config</title>
<polygon fill="none" stroke="black" points="646.05,-455.38 534.05,-455.38 534.05,-417.38 652.05,-417.38 652.05,-449.38 646.05,-455.38"/>
<polyline fill="none" stroke="black" points="646.05,-455.38 646.05,-449.38 "/>
<polyline fill="none" stroke="black" points="652.05,-449.38 646.05,-449.38 "/>
<text text-anchor="middle" x="593.05" y="-439.57" font-family="Arial" font-size="11.00">Bootstrap and</text>
<text text-anchor="middle" x="593.05" y="-427.57" font-family="Arial" font-size="11.00">Override Properties</text>
</g>
<!-- app&#45;&gt;config -->
<g id="edge2" class="edge">
<title>app&#45;&gt;config</title>
<path fill="none" stroke="black" d="M343.77,-262.5C357.71,-284.03 382.68,-319.05 411.05,-342.38 447.73,-372.54 495.67,-396.9 532.99,-413.26"/>
<polygon fill="black" stroke="black" points="531.67,-416.5 542.24,-417.24 534.44,-410.07 531.67,-416.5"/>
<text text-anchor="middle" x="454.05" y="-398.18" font-family="Arial" font-size="9.00">read / rewrite</text>
</g>
<!-- ofgem -->
<g id="node4" class="node">
<title>ofgem</title>
<ellipse fill="none" stroke="black" cx="593.05" cy="-359.38" rx="40.11" ry="18.27"/>
<text text-anchor="middle" x="593.05" y="-356.57" font-family="Arial" font-size="11.00">Ofgem</text>
</g>
<!-- app&#45;&gt;ofgem -->
<g id="edge3" class="edge">
<title>app&#45;&gt;ofgem</title>
<path fill="none" stroke="black" d="M364.22,-262.54C378.36,-270.63 395.31,-279.9 411.05,-287.38 458.16,-309.75 514.2,-331.3 551.31,-344.89"/>
<polygon fill="black" stroke="black" points="550.19,-348.21 560.78,-348.34 552.58,-341.63 550.19,-348.21"/>
<text text-anchor="middle" x="454.05" y="-325.18" font-family="Arial" font-size="9.00">HTTPS page + XLSX</text>
</g>
<!-- meteo -->
<g id="node5" class="node">
<title>meteo</title>
<ellipse fill="none" stroke="black" cx="593.05" cy="-282.38" rx="60.21" ry="18.27"/>
<text text-anchor="middle" x="593.05" y="-279.57" font-family="Arial" font-size="11.00">Open&#45;Meteo</text>
</g>
<!-- app&#45;&gt;meteo -->
<g id="edge4" class="edge">
<title>app&#45;&gt;meteo</title>
<path fill="none" stroke="black" d="M382.18,-250.89C423.88,-257.15 483.5,-266.09 528.54,-272.85"/>
<polygon fill="black" stroke="black" points="528.08,-276.32 538.49,-274.34 529.12,-269.4 528.08,-276.32"/>
<text text-anchor="middle" x="454.05" y="-270.18" font-family="Arial" font-size="9.00">HTTPS JSON</text>
</g>
<!-- octopus -->
<g id="node6" class="node">
<title>octopus</title>
<polygon fill="none" stroke="black" points="645.55,-224.38 642.55,-228.38 621.55,-228.38 618.55,-224.38 540.55,-224.38 540.55,-186.38 645.55,-186.38 645.55,-224.38"/>
<text text-anchor="middle" x="593.05" y="-208.57" font-family="Arial" font-size="11.00">Octopus</text>
<text text-anchor="middle" x="593.05" y="-196.57" font-family="Arial" font-size="11.00">Statement PDFs</text>
</g>
<!-- app&#45;&gt;octopus -->
<g id="edge5" class="edge">
<title>app&#45;&gt;octopus</title>
<path fill="none" stroke="black" d="M382.34,-228.67C391.82,-226.28 401.69,-224.05 411.05,-222.38 450.36,-215.35 495.02,-211.12 530.14,-208.64"/>
<polygon fill="black" stroke="black" points="530.51,-212.12 540.25,-207.95 530.03,-205.13 530.51,-212.12"/>
<text text-anchor="middle" x="454.05" y="-225.18" font-family="Arial" font-size="9.00">read local PDFs</text>
</g>
<!-- files -->
<g id="node7" class="node">
<title>files</title>
<polygon fill="none" stroke="black" points="638.55,-146.38 635.55,-150.38 614.55,-150.38 611.55,-146.38 547.55,-146.38 547.55,-108.38 638.55,-108.38 638.55,-146.38"/>
<text text-anchor="middle" x="593.05" y="-130.57" font-family="Arial" font-size="11.00">Work, Archive</text>
<text text-anchor="middle" x="593.05" y="-118.58" font-family="Arial" font-size="11.00">and Logs</text>
</g>
<!-- app&#45;&gt;files -->
<g id="edge7" class="edge">
<title>app&#45;&gt;files</title>
<path fill="none" stroke="black" d="M357.78,-224.14C372.78,-213.52 392.37,-200.65 411.05,-191.38 451.84,-171.11 500.66,-154.25 537.31,-142.92"/>
<polygon fill="black" stroke="black" points="538.76,-146.14 547.31,-139.88 536.72,-139.44 538.76,-146.14"/>
<text text-anchor="middle" x="454.05" y="-194.18" font-family="Arial" font-size="9.00">work / archive / logs</text>
</g>
<!-- db -->
<g id="node8" class="node">
<title>db</title>
<path fill="none" stroke="black" d="M660.05,-62.4C660.05,-65.83 630.02,-68.63 593.05,-68.63 556.08,-68.63 526.05,-65.83 526.05,-62.4 526.05,-62.4 526.05,-6.35 526.05,-6.35 526.05,-2.92 556.08,-0.12 593.05,-0.12 630.02,-0.12 660.05,-2.92 660.05,-6.35 660.05,-6.35 660.05,-62.4 660.05,-62.4"/>
<path fill="none" stroke="black" d="M660.05,-62.4C660.05,-58.96 630.02,-56.17 593.05,-56.17 556.08,-56.17 526.05,-58.96 526.05,-62.4"/>
<text text-anchor="middle" x="593.05" y="-43.58" font-family="Arial" font-size="11.00">OpenData SQL Server</text>
<text text-anchor="middle" x="593.05" y="-31.57" font-family="Arial" font-size="11.00">configuration, audit</text>
<text text-anchor="middle" x="593.05" y="-19.57" font-family="Arial" font-size="11.00">and plugin data</text>
</g>
<!-- app&#45;&gt;db -->
<g id="edge6" class="edge">
<title>app&#45;&gt;db</title>
<path fill="none" stroke="black" d="M342.85,-224.07C356.45,-201.03 381.64,-162.38 411.05,-136.38 442.3,-108.74 482.26,-85.26 516.68,-67.81"/>
<polygon fill="black" stroke="black" points="518.38,-70.88 525.77,-63.28 515.26,-64.61 518.38,-70.88"/>
<text text-anchor="middle" x="454.05" y="-139.18" font-family="Arial" font-size="9.00">pooled JDBC</text>
</g>
</g>
</svg>
